<?xml version="1.0" standalone="no"?>
<!DOCTYPE svg PUBLIC "-//W3C//DTD SVG 20010904//EN"
 "http://www.w3.org/TR/2001/REC-SVG-20010904/DTD/svg10.dtd">
<svg version="1.0" xmlns="http://www.w3.org/2000/svg"
 width="1440.000000pt" height="1440.000000pt" viewBox="0 0 1440.000000 1440.000000"
 preserveAspectRatio="xMidYMid meet">
<metadata>
Created by potrace 1.14, written by Peter Selinger 2001-2017
</metadata>
<g transform="translate(0.000000,1440.000000) scale(0.100000,-0.100000)"
fill="#000000" stroke="none">
<path d="M2730 8262 c0 -2231 3 -2801 13 -2804 19 -7 1763 -1 1842 6 87 7 172
16 205 21 14 2 43 6 65 10 23 3 52 8 65 10 41 9 124 26 147 31 12 2 34 9 49
14 14 6 30 8 35 4 5 -3 9 -1 9 4 0 5 6 9 13 9 16 0 174 51 214 69 17 7 36 14
42 14 6 0 19 4 29 9 9 6 78 39 152 75 74 36 158 79 185 95 28 17 57 34 65 38
54 26 319 225 403 302 441 410 701 838 832 1371 12 52 27 115 31 140 4 25 8
47 9 50 23 98 39 318 39 540 -1 164 -8 345 -14 345 -1 0 -3 15 -5 34 -5 49
-13 105 -19 133 -3 12 -8 39 -10 58 -3 19 -17 82 -32 140 -14 58 -27 112 -29
120 -7 31 -78 226 -91 252 -8 15 -14 29 -13 30 4 6 -84 187 -128 263 -46 80
-149 238 -177 272 -8 10 -36 45 -63 78 -114 144 -278 309 -433 435 -30 25 -56
48 -58 53 -2 4 -10 7 -17 7 -7 0 -15 3 -17 8 -11 26 -236 171 -389 250 -196
102 -397 178 -599 227 -8 2 -15 4 -15 5 0 1 -13 4 -30 6 -16 2 -48 9 -70 14
-53 13 -159 31 -215 36 -25 3 -65 8 -90 11 -25 3 -469 8 -987 10 l-943 4 0
-2799z m1380 1656 c19 1 40 3 45 3 32 1 264 -11 282 -15 11 -3 43 -8 70 -11
122 -17 286 -69 423 -134 62 -30 170 -95 170 -103 0 -4 5 -8 11 -8 32 0 227
-182 332 -309 110 -135 259 -424 283 -550 3 -14 7 -28 10 -33 3 -4 7 -18 10
-30 2 -13 7 -34 9 -48 31 -143 39 -233 39 -415 0 -153 -5 -237 -19 -317 -3
-16 -7 -39 -9 -53 -13 -75 -51 -210 -79 -280 -17 -44 -32 -82 -32 -85 0 -3
-20 -43 -44 -90 -97 -188 -249 -378 -407 -505 -27 -22 -50 -43 -52 -47 -2 -5
-10 -8 -18 -8 -8 0 -14 -4 -14 -10 0 -5 -7 -10 -15 -10 -8 0 -15 -3 -15 -7 0
-9 -29 -27 -147 -89 -46 -24 -83 -41 -83 -38 0 4 -6 2 -12 -4 -21 -17 -213
-78 -273 -88 -11 -1 -43 -7 -72 -13 -71 -14 -193 -22 -356 -24 -131 -2 -137
-1 -138 18 -1 24 0 3239 0 3277 1 27 22 39 51 29 8 -3 30 -4 50 -3z"/>
<path d="M6831 11043 c8 -10 21 -30 28 -44 7 -15 24 -38 37 -52 13 -14 24 -28
24 -31 0 -9 154 -231 162 -234 4 -2 8 -10 8 -17 0 -8 6 -20 13 -27 7 -7 68
-94 135 -193 67 -99 125 -185 130 -191 5 -6 23 -30 38 -54 49 -74 57 -86 123
-182 35 -51 68 -94 72 -96 5 -2 9 -8 9 -14 0 -8 95 -153 110 -168 3 -3 10 -12
15 -21 34 -56 220 -325 227 -327 4 -2 8 -8 8 -12 0 -5 36 -61 80 -124 44 -63
80 -119 80 -125 0 -6 4 -11 8 -11 4 0 16 -13 25 -30 10 -16 23 -35 30 -42 7
-7 18 -25 26 -40 8 -15 22 -37 33 -47 10 -11 18 -24 18 -29 0 -4 8 -17 18 -28
9 -11 41 -55 71 -99 164 -244 214 -316 222 -320 4 -3 -21 -47 -56 -98 -36 -51
-70 -99 -75 -107 -20 -29 -109 -155 -117 -165 -5 -5 -22 -30 -39 -55 -71 -105
-128 -186 -145 -206 -11 -11 -19 -23 -19 -26 0 -5 -129 -190 -178 -255 -9 -13
-53 -75 -97 -138 -44 -64 -128 -184 -187 -268 -60 -84 -113 -159 -118 -167
-52 -76 -153 -219 -165 -233 -8 -9 -15 -21 -15 -25 0 -5 -8 -17 -18 -28 -29
-32 -92 -123 -92 -134 0 -6 -5 -10 -10 -10 -6 0 -14 -8 -17 -17 -4 -10 -21
-36 -38 -59 -16 -23 -36 -50 -43 -60 -29 -44 -203 -290 -215 -304 -7 -8 -23
-33 -37 -55 -13 -22 -29 -45 -35 -51 -5 -6 -41 -57 -80 -114 -38 -56 -78 -111
-87 -121 -10 -11 -18 -21 -18 -24 0 -5 -143 -210 -179 -256 -45 -58 -97 -54
751 -54 431 0 789 4 795 8 7 5 52 65 100 135 48 70 91 129 95 130 4 2 8 10 8
18 0 8 5 14 10 14 6 0 10 4 10 9 0 6 30 52 68 105 37 52 112 161 167 241 55
81 105 152 111 158 5 7 13 20 17 30 3 9 11 17 17 17 5 0 10 5 10 10 0 6 19 37
43 70 23 32 62 89 87 125 25 37 51 73 58 81 7 8 10 14 5 14 -4 0 -3 4 3 8 5 4
35 43 65 87 30 44 57 82 62 83 4 2 7 10 7 17 0 7 4 15 8 17 7 3 39 47 197 278
32 47 62 87 67 88 4 2 8 10 8 17 0 8 6 20 13 27 7 7 27 34 45 60 18 26 36 49
41 52 5 3 28 -24 52 -60 24 -37 48 -72 54 -78 5 -7 15 -19 20 -28 6 -9 33 -48
60 -87 28 -40 55 -80 60 -89 10 -16 19 -28 43 -56 6 -8 12 -20 12 -26 0 -5 5
-10 10 -10 6 0 10 -6 10 -14 0 -8 4 -16 8 -18 4 -1 37 -46 72 -98 36 -52 67
-97 70 -100 3 -3 23 -32 46 -65 89 -132 268 -390 273 -395 3 -3 11 -12 16 -21
23 -37 91 -136 112 -164 26 -34 34 -45 48 -67 25 -39 151 -224 160 -234 6 -6
16 -20 23 -30 7 -11 42 -61 77 -112 36 -51 65 -95 65 -98 0 -3 9 -15 21 -27
l20 -22 820 0 c450 0 819 2 819 4 0 6 -52 83 -60 91 -4 3 -22 28 -41 55 -18
28 -36 52 -39 55 -3 3 -17 21 -30 40 -13 19 -27 37 -30 40 -3 3 -21 28 -40 55
-19 28 -38 52 -42 53 -4 2 -8 8 -8 13 0 5 -17 31 -37 58 -21 26 -45 58 -53 71
-8 13 -25 35 -37 50 -13 15 -23 31 -23 34 0 4 -9 17 -21 29 -11 12 -36 45 -55
74 -19 29 -40 58 -47 65 -6 7 -25 33 -42 58 -16 25 -32 47 -35 50 -4 3 -22 28
-41 55 -18 28 -36 52 -39 55 -3 3 -34 46 -70 95 -35 50 -66 92 -69 95 -4 3
-22 28 -40 55 -19 28 -37 52 -40 55 -4 3 -10 13 -16 22 -11 18 -298 414 -318
438 -7 9 -28 38 -47 65 -29 42 -110 155 -137 190 -59 77 -93 126 -93 135 0 5
-3 10 -7 10 -5 0 -21 20 -36 45 -16 25 -32 45 -37 45 -4 0 -13 14 -20 30 -7
17 -15 30 -19 30 -3 0 -17 17 -31 38 -14 20 -28 42 -33 47 -4 6 -43 60 -87
120 -183 253 -291 401 -307 424 -52 70 -54 76 -33 99 11 12 20 24 20 28 0 3
14 23 30 44 17 21 30 42 30 48 0 6 4 12 8 14 4 2 23 25 42 53 19 27 40 55 45
61 13 15 157 220 170 242 6 10 13 19 16 22 3 3 24 32 47 65 23 33 62 89 87
125 26 36 59 83 73 105 15 22 32 45 38 50 6 6 20 26 32 45 12 20 29 46 39 58
10 12 44 59 76 104 169 241 448 634 455 643 4 6 30 42 57 80 68 99 99 139 108
143 4 2 7 8 7 13 0 8 173 256 199 286 6 7 11 16 11 22 0 5 4 11 8 13 4 2 39
48 77 103 38 55 71 102 74 105 6 5 42 56 55 78 6 9 -154 12 -787 12 l-794 0
-89 -132 c-49 -73 -91 -137 -93 -143 -2 -5 -7 -12 -11 -15 -3 -3 -16 -22 -29
-43 -13 -21 -28 -43 -35 -50 -6 -6 -27 -37 -46 -67 -19 -30 -37 -57 -40 -60
-4 -3 -15 -20 -25 -37 -11 -18 -23 -33 -27 -33 -4 0 -8 -6 -8 -14 0 -8 -6 -21
-13 -28 -7 -7 -64 -89 -126 -183 -63 -93 -147 -218 -188 -277 -40 -59 -73
-112 -73 -118 0 -5 -4 -10 -8 -10 -5 0 -33 -38 -63 -85 -29 -47 -57 -85 -61
-85 -5 0 -8 -4 -8 -10 0 -12 -81 -130 -89 -130 -3 0 -40 51 -81 113 -41 61
-77 114 -80 117 -3 3 -21 30 -40 60 -19 30 -39 58 -45 62 -5 4 -6 8 -2 8 5 0
2 6 -6 14 -7 8 -54 74 -103 147 -49 74 -94 140 -101 147 -7 7 -13 17 -13 22 0
5 -6 15 -12 22 -21 22 -98 136 -98 145 -1 4 -14 24 -30 43 -17 19 -30 40 -30
46 0 7 -7 15 -16 18 -8 3 -13 10 -10 15 4 5 2 11 -2 13 -7 2 -58 76 -235 342
-6 10 -18 24 -24 32 -7 7 -13 15 -13 18 0 5 -23 40 -77 114 l-16 22 -760 0
c-723 0 -759 -1 -746 -17z"/>
<path d="M363 4566 c-101 -25 -203 -93 -271 -179 -63 -82 -96 -205 -88 -332 9
-140 46 -227 135 -315 79 -79 177 -125 284 -135 23 -2 44 -4 47 -6 3 -1 10 0
15 1 6 1 33 4 61 6 95 7 207 56 219 95 9 27 -13 79 -34 80 -9 0 -24 2 -34 4
-9 2 -25 -4 -34 -13 -9 -10 -19 -16 -22 -16 -3 1 -17 -3 -31 -8 -44 -17 -155
-21 -211 -8 -106 24 -180 86 -227 189 -22 49 -26 70 -26 161 0 97 3 110 31
170 41 85 79 120 187 171 30 15 166 19 222 8 16 -4 48 -16 70 -27 50 -26 72
-23 98 11 37 50 2 93 -108 133 -57 21 -218 27 -283 10z"/>
<path d="M11196 4557 c-26 -19 -31 -79 -9 -106 17 -20 55 -27 95 -19 24 6 29
12 38 52 7 30 4 39 -16 61 -26 28 -78 34 -108 12z"/>
<path d="M12474 4479 c-15 -16 -19 -36 -19 -88 l0 -66 -40 -2 c-46 -1 -94 -18
-96 -33 -1 -5 -2 -16 -3 -22 -1 -7 6 -25 15 -39 14 -19 26 -25 51 -24 76 2 72
15 73 -246 1 -192 4 -239 17 -264 32 -60 81 -84 162 -79 58 3 100 30 104 66 4
34 -21 52 -71 49 -80 -4 -81 -2 -82 235 0 115 2 216 6 224 6 12 22 15 61 14
49 -1 97 11 99 25 0 3 3 18 5 33 7 40 -31 61 -109 61 l-63 0 2 66 c1 53 -3 70
-19 89 -26 28 -68 29 -93 1z"/>
<path d="M2028 4339 c-84 -37 -137 -70 -174 -107 -24 -25 -41 -49 -38 -54 3
-4 1 -8 -5 -8 -25 0 -70 -220 -52 -255 3 -5 7 -21 9 -35 5 -44 64 -149 103
-183 47 -40 75 -60 83 -58 3 1 20 -6 36 -14 17 -9 50 -17 73 -20 23 -2 47 -4
52 -6 6 -2 33 1 60 5 109 17 205 86 260 187 34 63 40 93 39 199 -1 67 -6 96
-25 135 -13 28 -27 52 -31 53 -4 2 -8 8 -8 14 0 19 -84 94 -131 116 -71 34
-206 51 -251 31z m161 -124 c89 -17 170 -155 158 -267 -13 -119 -88 -206 -191
-222 -21 -4 -42 -9 -46 -11 -5 -3 -11 -1 -14 4 -3 4 -16 9 -29 9 -30 0 -100
45 -130 86 -52 68 -65 189 -27 268 54 116 145 160 279 133z"/>
<path d="M3799 4330 c-50 -17 -117 -63 -126 -86 -9 -24 -23 -15 -23 16 0 55
-62 88 -105 56 -24 -18 -31 -119 -22 -354 1 -34 0 -62 -3 -62 -3 0 -5 -29 -5
-65 0 -36 2 -65 5 -65 3 0 4 -26 3 -58 -1 -64 12 -90 48 -95 37 -6 66 12 73
45 3 17 6 118 6 225 0 140 4 203 14 226 16 38 79 97 105 97 10 0 21 3 25 7 11
11 88 3 119 -14 18 -9 37 -32 49 -60 18 -42 20 -69 22 -270 l1 -225 24 -20
c28 -22 67 -18 88 10 16 21 14 1 16 248 l2 210 28 43 c68 102 236 110 284 13
15 -32 19 -71 23 -271 l5 -234 25 -18 c33 -24 78 -15 91 18 10 26 13 366 5
463 -5 56 -35 141 -58 163 -76 73 -192 91 -287 43 -59 -31 -121 -82 -121 -102
0 -25 -16 -15 -38 24 -49 88 -167 128 -273 92z"/>
<path d="M5970 4335 c-59 -12 -99 -34 -141 -77 -14 -16 -28 -28 -31 -28 -3 0
-5 15 -6 32 -2 60 -70 89 -108 47 -18 -20 -19 -41 -18 -340 0 -304 1 -319 19
-336 11 -10 27 -18 35 -17 8 0 23 2 32 2 36 4 42 40 43 263 l0 216 28 42 c38
57 100 85 173 79 62 -5 89 -25 114 -83 15 -34 18 -76 19 -255 1 -118 4 -222 6
-231 7 -21 50 -40 72 -32 49 17 51 28 52 244 0 112 2 211 4 219 8 40 41 87 75
109 52 35 144 40 189 12 61 -39 67 -61 68 -306 1 -121 5 -230 9 -243 16 -48
97 -48 115 0 10 29 7 449 -3 503 -13 63 -56 131 -97 154 -48 28 -179 48 -179
28 0 -4 -4 -6 -8 -3 -5 3 -20 -1 -35 -9 -15 -8 -27 -11 -27 -7 0 4 -4 2 -8 -3
-4 -6 -23 -21 -43 -34 -20 -14 -45 -37 -55 -53 -19 -28 -34 -36 -34 -18 0 6
-10 26 -22 45 -45 67 -142 100 -238 80z"/>
<path d="M9776 4333 c-40 -13 -98 -52 -127 -85 -23 -25 -32 -22 -26 9 3 19 -2
33 -19 50 -29 29 -65 30 -90 2 -18 -20 -19 -41 -20 -328 0 -168 3 -316 7 -328
16 -45 88 -51 111 -9 8 14 12 95 12 236 1 246 5 260 86 314 37 25 54 30 107
30 71 0 104 -18 138 -74 17 -31 19 -55 20 -254 0 -122 4 -231 9 -244 9 -26 44
-43 74 -35 44 11 48 35 47 268 -1 121 -5 240 -9 264 -16 93 -81 172 -155 187
-62 12 -125 11 -165 -3z"/>
<path d="M11225 4330 c-12 -4 -26 -14 -32 -21 -13 -17 -13 -647 0 -667 25 -39
96 -31 114 12 6 15 10 554 4 632 -3 34 -51 59 -86 44z"/>
<path d="M13823 4317 c-11 -12 -19 -29 -18 -37 1 -8 -2 -25 -7 -37 -4 -13 -4
-23 0 -23 6 0 8 -190 2 -215 -1 -5 -2 -12 -1 -15 1 -3 4 -52 5 -110 4 -126 27
-186 88 -231 44 -31 102 -53 122 -46 7 3 19 1 26 -3 8 -5 19 -6 25 -2 5 3 19
7 30 8 43 2 99 28 137 62 l40 36 -5 -61 c-7 -80 -43 -138 -100 -163 -52 -23
-166 -22 -217 2 -71 33 -99 27 -119 -24 -17 -45 36 -93 119 -107 46 -8 177 -8
216 0 94 20 181 98 212 192 19 57 21 87 22 394 0 183 -2 344 -6 357 -5 23 -24
36 -64 42 -8 2 -25 -7 -37 -18 -23 -21 -23 -26 -23 -242 0 -249 -7 -279 -77
-326 -50 -34 -157 -36 -200 -4 -58 43 -61 62 -63 354 -1 214 -4 228 -58 234
-22 3 -35 -2 -49 -17z"/>
<path d="M7830 4308 c-21 -22 -21 -30 -18 -263 3 -218 5 -244 24 -285 26 -57
74 -105 132 -133 66 -30 217 -30 283 1 47 22 119 87 119 108 0 7 6 19 13 26
20 22 21 32 23 284 3 229 2 242 -17 263 -22 24 -57 27 -83 8 -22 -16 -35 -80
-25 -124 3 -18 3 -33 -1 -33 -4 0 -4 -19 -1 -42 4 -24 4 -56 1 -73 -3 -16 -3
-44 1 -62 4 -18 4 -34 1 -37 -2 -3 -6 -32 -7 -64 -3 -101 -48 -149 -150 -157
-93 -8 -154 29 -175 104 -5 20 -10 131 -10 247 0 198 -1 212 -20 232 -27 28
-64 28 -90 0z"/>
</g>
</svg>
