<svg xmlns="http://www.w3.org/2000/svg" xmlns:xlink="http://www.w3.org/1999/xlink" zoomAndPan="magnify"
     preserveAspectRatio="xMidYMid meet" version="1.0" viewBox="97.3 140.75 179.9 96.43">
    <defs>
        <g/>
    </defs>
    <g fill="currentColor" fill-opacity="1">
        <g transform="translate(126.320187, 210.749986)">
            <g>
                <path d="M 5.09375 -70 L 25.375 -70 C 35.101562 -70 43.414062 -66.675781 50.3125 -60.03125 C 57.207031 -53.382812 60.65625 -45.054688 60.65625 -35.046875 C 60.65625 -24.972656 57.21875 -16.613281 50.34375 -9.96875 C 43.476562 -3.320312 35.15625 0 25.375 0 L 5.09375 0 Z M 21.046875 -14.25 L 23.5 -14.25 C 29.320312 -14.25 34.085938 -16.210938 37.796875 -20.140625 C 41.503906 -24.078125 43.382812 -29.015625 43.4375 -34.953125 C 43.4375 -40.890625 41.582031 -45.835938 37.875 -49.796875 C 34.175781 -53.765625 29.382812 -55.75 23.5 -55.75 L 21.046875 -55.75 Z M 21.046875 -14.25 "/>
            </g>
        </g>
    </g>
    <g fill="currentColor" fill-opacity="1">
        <g transform="translate(180.958758, 210.749986)">
            <g>
                <path d="M 70.59375 0 L 49.96875 0 L 33.421875 -23.84375 L 16.890625 0 L -2.890625 0 L 23.59375 -37.671875 L 1.53125 -70 L 20.53125 -70 L 33.421875 -50.90625 L 46.328125 -70 L 66.171875 -70 L 43.265625 -37.671875 Z M 70.59375 0 "/>
            </g>
        </g>
    </g>
    <g fill="currentColor" fill-opacity="1">
        <g transform="translate(96.560882, 233.759334)">
            <g>
                <path d="M 9.9375 -11.25 C 10.207031 -11.101562 10.34375 -10.878906 10.34375 -10.578125 C 10.34375 -10.367188 10.273438 -10.175781 10.140625 -10 C 10.003906 -9.820312 9.816406 -9.734375 9.578125 -9.734375 C 9.421875 -9.734375 9.269531 -9.773438 9.125 -9.859375 C 8.414062 -10.253906 7.648438 -10.453125 6.828125 -10.453125 C 5.972656 -10.453125 5.21875 -10.265625 4.5625 -9.890625 C 3.914062 -9.515625 3.410156 -8.988281 3.046875 -8.3125 C 2.679688 -7.632812 2.5 -6.859375 2.5 -5.984375 C 2.5 -5.035156 2.6875 -4.21875 3.0625 -3.53125 C 3.4375 -2.851562 3.953125 -2.332031 4.609375 -1.96875 C 5.273438 -1.613281 6.015625 -1.4375 6.828125 -1.4375 C 7.671875 -1.4375 8.4375 -1.640625 9.125 -2.046875 C 9.257812 -2.117188 9.40625 -2.15625 9.5625 -2.15625 C 9.8125 -2.15625 10.007812 -2.054688 10.15625 -1.859375 C 10.289062 -1.691406 10.359375 -1.507812 10.359375 -1.3125 C 10.359375 -1.175781 10.320312 -1.046875 10.25 -0.921875 C 10.175781 -0.804688 10.078125 -0.71875 9.953125 -0.65625 C 9.515625 -0.394531 9.019531 -0.191406 8.46875 -0.046875 C 7.914062 0.0976562 7.367188 0.171875 6.828125 0.171875 C 5.722656 0.171875 4.707031 -0.0703125 3.78125 -0.5625 C 2.851562 -1.050781 2.113281 -1.757812 1.5625 -2.6875 C 1.007812 -3.625 0.734375 -4.722656 0.734375 -5.984375 C 0.734375 -7.128906 1 -8.164062 1.53125 -9.09375 C 2.0625 -10.019531 2.789062 -10.75 3.71875 -11.28125 C 4.644531 -11.8125 5.679688 -12.078125 6.828125 -12.078125 C 7.929688 -12.078125 8.96875 -11.800781 9.9375 -11.25 Z M 9.9375 -11.25 "/>
            </g>
        </g>
    </g>
    <g fill="currentColor" fill-opacity="1">
        <g transform="translate(118.5835, 233.759334)">
            <g>
                <path d="M 9.6875 -4.46875 C 9.6875 -3.582031 9.484375 -2.785156 9.078125 -2.078125 C 8.679688 -1.378906 8.140625 -0.828125 7.453125 -0.421875 C 6.765625 -0.0234375 6.003906 0.171875 5.171875 0.171875 C 4.335938 0.171875 3.578125 -0.0234375 2.890625 -0.421875 C 2.203125 -0.828125 1.660156 -1.378906 1.265625 -2.078125 C 0.867188 -2.785156 0.671875 -3.582031 0.671875 -4.46875 C 0.671875 -5.363281 0.867188 -6.164062 1.265625 -6.875 C 1.660156 -7.59375 2.203125 -8.148438 2.890625 -8.546875 C 3.578125 -8.953125 4.335938 -9.15625 5.171875 -9.15625 C 6.003906 -9.15625 6.765625 -8.953125 7.453125 -8.546875 C 8.140625 -8.148438 8.679688 -7.59375 9.078125 -6.875 C 9.484375 -6.164062 9.6875 -5.363281 9.6875 -4.46875 Z M 8.0625 -4.46875 C 8.0625 -5.082031 7.929688 -5.628906 7.671875 -6.109375 C 7.421875 -6.597656 7.078125 -6.976562 6.640625 -7.25 C 6.203125 -7.519531 5.710938 -7.65625 5.171875 -7.65625 C 4.640625 -7.65625 4.15625 -7.519531 3.71875 -7.25 C 3.28125 -6.976562 2.929688 -6.597656 2.671875 -6.109375 C 2.410156 -5.628906 2.28125 -5.082031 2.28125 -4.46875 C 2.28125 -3.863281 2.410156 -3.320312 2.671875 -2.84375 C 2.929688 -2.375 3.28125 -2.003906 3.71875 -1.734375 C 4.15625 -1.460938 4.640625 -1.328125 5.171875 -1.328125 C 5.710938 -1.328125 6.203125 -1.460938 6.640625 -1.734375 C 7.078125 -2.003906 7.421875 -2.375 7.671875 -2.84375 C 7.929688 -3.320312 8.0625 -3.863281 8.0625 -4.46875 Z M 8.0625 -4.46875 "/>
            </g>
        </g>
    </g>
    <g fill="currentColor" fill-opacity="1">
        <g transform="translate(140.059992, 233.759334)">
            <g>
                <path d="M 11.46875 -9.109375 C 13.46875 -9.109375 14.46875 -7.863281 14.46875 -5.375 L 14.46875 -0.8125 C 14.46875 -0.582031 14.390625 -0.390625 14.234375 -0.234375 C 14.085938 -0.078125 13.894531 0 13.65625 0 C 13.414062 0 13.21875 -0.078125 13.0625 -0.234375 C 12.914062 -0.398438 12.84375 -0.59375 12.84375 -0.8125 L 12.84375 -5.359375 C 12.84375 -6.847656 12.21875 -7.59375 10.96875 -7.59375 C 10.519531 -7.59375 10.113281 -7.492188 9.75 -7.296875 C 9.394531 -7.097656 9.117188 -6.828125 8.921875 -6.484375 C 8.722656 -6.148438 8.625 -5.773438 8.625 -5.359375 L 8.625 -0.8125 C 8.625 -0.59375 8.546875 -0.398438 8.390625 -0.234375 C 8.234375 -0.078125 8.039062 0 7.8125 0 C 7.570312 0 7.375 -0.078125 7.21875 -0.234375 C 7.070312 -0.390625 7 -0.582031 7 -0.8125 L 7 -5.375 C 7 -6.050781 6.851562 -6.585938 6.5625 -6.984375 C 6.28125 -7.390625 5.8125 -7.59375 5.15625 -7.59375 C 4.488281 -7.59375 3.929688 -7.378906 3.484375 -6.953125 C 3.046875 -6.523438 2.828125 -6 2.828125 -5.375 L 2.828125 -0.8125 C 2.828125 -0.59375 2.75 -0.398438 2.59375 -0.234375 C 2.445312 -0.078125 2.253906 0 2.015625 0 C 1.773438 0 1.582031 -0.078125 1.4375 -0.234375 C 1.289062 -0.390625 1.21875 -0.582031 1.21875 -0.8125 L 1.21875 -8.125 C 1.21875 -8.351562 1.289062 -8.546875 1.4375 -8.703125 C 1.59375 -8.867188 1.785156 -8.953125 2.015625 -8.953125 C 2.253906 -8.953125 2.445312 -8.867188 2.59375 -8.703125 C 2.75 -8.546875 2.828125 -8.351562 2.828125 -8.125 L 2.828125 -7.53125 C 3.128906 -7.976562 3.523438 -8.351562 4.015625 -8.65625 C 4.515625 -8.957031 5.054688 -9.109375 5.640625 -9.109375 C 7.046875 -9.109375 7.960938 -8.476562 8.390625 -7.21875 C 8.640625 -7.695312 9.050781 -8.128906 9.625 -8.515625 C 10.207031 -8.910156 10.820312 -9.109375 11.46875 -9.109375 Z M 11.46875 -9.109375 "/>
            </g>
        </g>
    </g>
    <g fill="currentColor" fill-opacity="1">
        <g transform="translate(166.861221, 233.759334)">
            <g>
                <path d="M 11.46875 -9.109375 C 13.46875 -9.109375 14.46875 -7.863281 14.46875 -5.375 L 14.46875 -0.8125 C 14.46875 -0.582031 14.390625 -0.390625 14.234375 -0.234375 C 14.085938 -0.078125 13.894531 0 13.65625 0 C 13.414062 0 13.21875 -0.078125 13.0625 -0.234375 C 12.914062 -0.398438 12.84375 -0.59375 12.84375 -0.8125 L 12.84375 -5.359375 C 12.84375 -6.847656 12.21875 -7.59375 10.96875 -7.59375 C 10.519531 -7.59375 10.113281 -7.492188 9.75 -7.296875 C 9.394531 -7.097656 9.117188 -6.828125 8.921875 -6.484375 C 8.722656 -6.148438 8.625 -5.773438 8.625 -5.359375 L 8.625 -0.8125 C 8.625 -0.59375 8.546875 -0.398438 8.390625 -0.234375 C 8.234375 -0.078125 8.039062 0 7.8125 0 C 7.570312 0 7.375 -0.078125 7.21875 -0.234375 C 7.070312 -0.390625 7 -0.582031 7 -0.8125 L 7 -5.375 C 7 -6.050781 6.851562 -6.585938 6.5625 -6.984375 C 6.28125 -7.390625 5.8125 -7.59375 5.15625 -7.59375 C 4.488281 -7.59375 3.929688 -7.378906 3.484375 -6.953125 C 3.046875 -6.523438 2.828125 -6 2.828125 -5.375 L 2.828125 -0.8125 C 2.828125 -0.59375 2.75 -0.398438 2.59375 -0.234375 C 2.445312 -0.078125 2.253906 0 2.015625 0 C 1.773438 0 1.582031 -0.078125 1.4375 -0.234375 C 1.289062 -0.390625 1.21875 -0.582031 1.21875 -0.8125 L 1.21875 -8.125 C 1.21875 -8.351562 1.289062 -8.546875 1.4375 -8.703125 C 1.59375 -8.867188 1.785156 -8.953125 2.015625 -8.953125 C 2.253906 -8.953125 2.445312 -8.867188 2.59375 -8.703125 C 2.75 -8.546875 2.828125 -8.351562 2.828125 -8.125 L 2.828125 -7.53125 C 3.128906 -7.976562 3.523438 -8.351562 4.015625 -8.65625 C 4.515625 -8.957031 5.054688 -9.109375 5.640625 -9.109375 C 7.046875 -9.109375 7.960938 -8.476562 8.390625 -7.21875 C 8.640625 -7.695312 9.050781 -8.128906 9.625 -8.515625 C 10.207031 -8.910156 10.820312 -9.109375 11.46875 -9.109375 Z M 11.46875 -9.109375 "/>
            </g>
        </g>
    </g>
    <g fill="currentColor" fill-opacity="1">
        <g transform="translate(193.662451, 233.759334)">
            <g>
                <path d="M 7.875 -8.953125 C 8.113281 -8.953125 8.304688 -8.867188 8.453125 -8.703125 C 8.609375 -8.546875 8.6875 -8.351562 8.6875 -8.125 L 8.6875 -3.59375 C 8.6875 -2.40625 8.359375 -1.484375 7.703125 -0.828125 C 7.054688 -0.171875 6.132812 0.15625 4.9375 0.15625 C 3.75 0.15625 2.832031 -0.171875 2.1875 -0.828125 C 1.539062 -1.484375 1.21875 -2.40625 1.21875 -3.59375 L 1.21875 -8.125 C 1.21875 -8.351562 1.289062 -8.546875 1.4375 -8.703125 C 1.59375 -8.867188 1.785156 -8.953125 2.015625 -8.953125 C 2.253906 -8.953125 2.445312 -8.867188 2.59375 -8.703125 C 2.75 -8.546875 2.828125 -8.351562 2.828125 -8.125 L 2.828125 -3.59375 C 2.828125 -2.09375 3.53125 -1.34375 4.9375 -1.34375 C 5.632812 -1.34375 6.164062 -1.53125 6.53125 -1.90625 C 6.894531 -2.28125 7.078125 -2.84375 7.078125 -3.59375 L 7.078125 -8.125 C 7.078125 -8.351562 7.148438 -8.546875 7.296875 -8.703125 C 7.453125 -8.867188 7.644531 -8.953125 7.875 -8.953125 Z M 7.875 -8.953125 "/>
            </g>
        </g>
    </g>
    <g fill="currentColor" fill-opacity="1">
        <g transform="translate(214.695202, 233.759334)">
            <g>
                <path d="M 5.765625 -9.15625 C 7.816406 -9.15625 8.84375 -7.925781 8.84375 -5.46875 L 8.84375 -0.8125 C 8.84375 -0.59375 8.765625 -0.398438 8.609375 -0.234375 C 8.460938 -0.078125 8.269531 0 8.03125 0 C 7.800781 0 7.609375 -0.078125 7.453125 -0.234375 C 7.296875 -0.398438 7.21875 -0.59375 7.21875 -0.8125 L 7.21875 -5.453125 C 7.21875 -6.117188 7.0625 -6.648438 6.75 -7.046875 C 6.445312 -7.453125 5.953125 -7.65625 5.265625 -7.65625 C 4.804688 -7.65625 4.390625 -7.550781 4.015625 -7.34375 C 3.648438 -7.144531 3.359375 -6.878906 3.140625 -6.546875 C 2.929688 -6.210938 2.828125 -5.847656 2.828125 -5.453125 L 2.828125 -0.8125 C 2.828125 -0.59375 2.75 -0.398438 2.59375 -0.234375 C 2.445312 -0.078125 2.253906 0 2.015625 0 C 1.773438 0 1.582031 -0.078125 1.4375 -0.234375 C 1.289062 -0.390625 1.21875 -0.582031 1.21875 -0.8125 L 1.21875 -8.125 C 1.21875 -8.351562 1.289062 -8.546875 1.4375 -8.703125 C 1.59375 -8.867188 1.785156 -8.953125 2.015625 -8.953125 C 2.253906 -8.953125 2.445312 -8.867188 2.59375 -8.703125 C 2.75 -8.546875 2.828125 -8.351562 2.828125 -8.125 L 2.828125 -7.53125 C 3.128906 -7.988281 3.546875 -8.375 4.078125 -8.6875 C 4.609375 -9 5.171875 -9.15625 5.765625 -9.15625 Z M 5.765625 -9.15625 "/>
            </g>
        </g>
    </g>
    <g fill="currentColor" fill-opacity="1">
        <g transform="translate(235.881556, 233.759334)">
            <g>
                <path d="M 2.75 -0.8125 C 2.75 -0.59375 2.671875 -0.398438 2.515625 -0.234375 C 2.359375 -0.078125 2.164062 0 1.9375 0 C 1.707031 0 1.515625 -0.078125 1.359375 -0.234375 C 1.203125 -0.398438 1.125 -0.59375 1.125 -0.8125 L 1.125 -8.21875 C 1.125 -8.445312 1.203125 -8.640625 1.359375 -8.796875 C 1.515625 -8.953125 1.707031 -9.03125 1.9375 -9.03125 C 2.164062 -9.03125 2.359375 -8.953125 2.515625 -8.796875 C 2.671875 -8.640625 2.75 -8.445312 2.75 -8.21875 Z M 1.921875 -10.15625 C 1.597656 -10.15625 1.363281 -10.210938 1.21875 -10.328125 C 1.070312 -10.453125 1 -10.644531 1 -10.90625 L 1 -11.1875 C 1 -11.457031 1.078125 -11.648438 1.234375 -11.765625 C 1.390625 -11.878906 1.625 -11.9375 1.9375 -11.9375 C 2.257812 -11.9375 2.488281 -11.875 2.625 -11.75 C 2.769531 -11.632812 2.84375 -11.445312 2.84375 -11.1875 L 2.84375 -10.90625 C 2.84375 -10.632812 2.769531 -10.441406 2.625 -10.328125 C 2.476562 -10.210938 2.242188 -10.15625 1.921875 -10.15625 Z M 1.921875 -10.15625 "/>
            </g>
        </g>
    </g>
    <g fill="currentColor" fill-opacity="1">
        <g transform="translate(250.889842, 233.759334)">
            <g>
                <path d="M 3.640625 -7.359375 L 3.640625 -2.265625 C 3.640625 -1.703125 3.894531 -1.421875 4.40625 -1.421875 C 4.488281 -1.421875 4.597656 -1.4375 4.734375 -1.46875 C 4.867188 -1.507812 4.976562 -1.53125 5.0625 -1.53125 C 5.207031 -1.53125 5.328125 -1.46875 5.421875 -1.34375 C 5.523438 -1.21875 5.578125 -1.0625 5.578125 -0.875 C 5.578125 -0.632812 5.441406 -0.425781 5.171875 -0.25 C 4.898438 -0.0820312 4.59375 0 4.25 0 C 3.875 0 3.53125 -0.0351562 3.21875 -0.109375 C 2.90625 -0.191406 2.625 -0.394531 2.375 -0.71875 C 2.132812 -1.050781 2.015625 -1.546875 2.015625 -2.203125 L 2.015625 -7.359375 L 1.03125 -7.359375 C 0.8125 -7.359375 0.628906 -7.425781 0.484375 -7.5625 C 0.335938 -7.707031 0.265625 -7.890625 0.265625 -8.109375 C 0.265625 -8.328125 0.335938 -8.503906 0.484375 -8.640625 C 0.628906 -8.773438 0.8125 -8.84375 1.03125 -8.84375 L 2.015625 -8.84375 L 2.015625 -10.28125 C 2.015625 -10.507812 2.085938 -10.703125 2.234375 -10.859375 C 2.390625 -11.015625 2.585938 -11.09375 2.828125 -11.09375 C 3.054688 -11.09375 3.25 -11.015625 3.40625 -10.859375 C 3.5625 -10.703125 3.640625 -10.507812 3.640625 -10.28125 L 3.640625 -8.84375 L 5.0625 -8.84375 C 5.269531 -8.84375 5.445312 -8.769531 5.59375 -8.625 C 5.738281 -8.488281 5.8125 -8.3125 5.8125 -8.09375 C 5.8125 -7.875 5.738281 -7.695312 5.59375 -7.5625 C 5.445312 -7.425781 5.269531 -7.359375 5.0625 -7.359375 Z M 3.640625 -7.359375 "/>
            </g>
        </g>
    </g>
    <g fill="currentColor" fill-opacity="1">
        <g transform="translate(268.509311, 233.759334)">
            <g>
                <path d="M 7.875 -9.03125 C 8.113281 -9.03125 8.304688 -8.953125 8.453125 -8.796875 C 8.609375 -8.640625 8.6875 -8.445312 8.6875 -8.21875 L 8.6875 -0.84375 C 8.6875 0.582031 8.296875 1.648438 7.515625 2.359375 C 6.734375 3.066406 5.695312 3.421875 4.40625 3.421875 C 3.988281 3.421875 3.570312 3.378906 3.15625 3.296875 C 2.75 3.210938 2.414062 3.101562 2.15625 2.96875 C 1.726562 2.78125 1.515625 2.519531 1.515625 2.1875 C 1.515625 2.125 1.523438 2.050781 1.546875 1.96875 C 1.617188 1.769531 1.71875 1.617188 1.84375 1.515625 C 1.96875 1.410156 2.109375 1.359375 2.265625 1.359375 C 2.359375 1.359375 2.445312 1.378906 2.53125 1.421875 C 2.882812 1.578125 3.195312 1.703125 3.46875 1.796875 C 3.738281 1.890625 4.054688 1.9375 4.421875 1.9375 C 6.191406 1.9375 7.078125 1.03125 7.078125 -0.78125 L 7.078125 -1.125 C 6.765625 -0.71875 6.363281 -0.398438 5.875 -0.171875 C 5.394531 0.0546875 4.84375 0.171875 4.21875 0.171875 C 3.269531 0.171875 2.53125 -0.128906 2 -0.734375 C 1.476562 -1.335938 1.21875 -2.128906 1.21875 -3.109375 L 1.21875 -8.21875 C 1.21875 -8.457031 1.289062 -8.648438 1.4375 -8.796875 C 1.582031 -8.953125 1.773438 -9.03125 2.015625 -9.03125 C 2.253906 -9.03125 2.445312 -8.953125 2.59375 -8.796875 C 2.75 -8.640625 2.828125 -8.445312 2.828125 -8.21875 L 2.828125 -3.53125 C 2.828125 -2.78125 2.992188 -2.222656 3.328125 -1.859375 C 3.660156 -1.503906 4.160156 -1.328125 4.828125 -1.328125 C 5.484375 -1.328125 6.019531 -1.53125 6.4375 -1.9375 C 6.863281 -2.351562 7.078125 -2.882812 7.078125 -3.53125 L 7.078125 -8.21875 C 7.078125 -8.457031 7.148438 -8.648438 7.296875 -8.796875 C 7.441406 -8.953125 7.632812 -9.03125 7.875 -9.03125 Z M 7.875 -9.03125 "/>
            </g>
        </g>
    </g>
</svg>
