<svg xmlns:xlink="http://www.w3.org/1999/xlink" xmlns="http://www.w3.org/2000/svg" zoomAndPan="magnify"
     preserveAspectRatio="xMidYMid meet" version="1.0" viewBox="48.1 140.75 303.52 75.97" fill="currentColor">
    <defs>
        <g/>
    </defs>
    <g fill="currentColor" fill-opacity="1">
        <g transform="translate(43.004108, 210.749986)">
            <g>
                <path d="M 5.09375 -70 L 25.375 -70 C 35.101562 -70 43.414062 -66.675781 50.3125 -60.03125 C 57.207031 -53.382812 60.65625 -45.054688 60.65625 -35.046875 C 60.65625 -24.972656 57.21875 -16.613281 50.34375 -9.96875 C 43.476562 -3.320312 35.15625 0 25.375 0 L 5.09375 0 Z M 21.046875 -14.25 L 23.5 -14.25 C 29.320312 -14.25 34.085938 -16.210938 37.796875 -20.140625 C 41.503906 -24.078125 43.382812 -29.015625 43.4375 -34.953125 C 43.4375 -40.890625 41.582031 -45.835938 37.875 -49.796875 C 34.175781 -53.765625 29.382812 -55.75 23.5 -55.75 L 21.046875 -55.75 Z M 21.046875 -14.25 "/>
            </g>
        </g>
    </g>
    <g fill="currentColor" fill-opacity="1">
        <g transform="translate(97.642679, 210.749986)">
            <g>
                <path d="M 70.59375 0 L 49.96875 0 L 33.421875 -23.84375 L 16.890625 0 L -2.890625 0 L 23.59375 -37.671875 L 1.53125 -70 L 20.53125 -70 L 33.421875 -50.90625 L 46.328125 -70 L 66.171875 -70 L 43.265625 -37.671875 Z M 70.59375 0 "/>
            </g>
        </g>
    </g>
    <g fill="currentColor" fill-opacity="1">
        <g transform="translate(174.920907, 211.40933)">
            <g>
                <path d="M 15.484375 -17.53125 C 15.898438 -17.289062 16.109375 -16.9375 16.109375 -16.46875 C 16.109375 -16.144531 16.003906 -15.847656 15.796875 -15.578125 C 15.585938 -15.296875 15.296875 -15.15625 14.921875 -15.15625 C 14.671875 -15.15625 14.429688 -15.21875 14.203125 -15.34375 C 13.097656 -15.96875 11.910156 -16.28125 10.640625 -16.28125 C 9.304688 -16.28125 8.128906 -15.984375 7.109375 -15.390625 C 6.085938 -14.804688 5.289062 -13.988281 4.71875 -12.9375 C 4.15625 -11.882812 3.875 -10.675781 3.875 -9.3125 C 3.875 -7.832031 4.164062 -6.5625 4.75 -5.5 C 5.34375 -4.4375 6.148438 -3.625 7.171875 -3.0625 C 8.203125 -2.507812 9.359375 -2.234375 10.640625 -2.234375 C 11.953125 -2.234375 13.140625 -2.550781 14.203125 -3.1875 C 14.410156 -3.289062 14.640625 -3.34375 14.890625 -3.34375 C 15.285156 -3.34375 15.597656 -3.195312 15.828125 -2.90625 C 16.035156 -2.632812 16.140625 -2.347656 16.140625 -2.046875 C 16.140625 -1.835938 16.082031 -1.640625 15.96875 -1.453125 C 15.851562 -1.265625 15.695312 -1.117188 15.5 -1.015625 C 14.8125 -0.617188 14.035156 -0.304688 13.171875 -0.078125 C 12.316406 0.148438 11.472656 0.265625 10.640625 0.265625 C 8.921875 0.265625 7.335938 -0.113281 5.890625 -0.875 C 4.441406 -1.632812 3.285156 -2.738281 2.421875 -4.1875 C 1.566406 -5.644531 1.140625 -7.351562 1.140625 -9.3125 C 1.140625 -11.101562 1.550781 -12.71875 2.375 -14.15625 C 3.195312 -15.601562 4.332031 -16.738281 5.78125 -17.5625 C 7.226562 -18.382812 8.847656 -18.796875 10.640625 -18.796875 C 12.359375 -18.796875 13.972656 -18.375 15.484375 -17.53125 Z M 15.484375 -17.53125 "/>
            </g>
        </g>
    </g>
    <g fill="currentColor" fill-opacity="1">
        <g transform="translate(196.141212, 211.40933)">
            <g>
                <path d="M 15.078125 -6.96875 C 15.078125 -5.582031 14.765625 -4.335938 14.140625 -3.234375 C 13.523438 -2.140625 12.679688 -1.28125 11.609375 -0.65625 C 10.535156 -0.0390625 9.351562 0.265625 8.0625 0.265625 C 6.757812 0.265625 5.570312 -0.0390625 4.5 -0.65625 C 3.4375 -1.28125 2.59375 -2.140625 1.96875 -3.234375 C 1.34375 -4.335938 1.03125 -5.582031 1.03125 -6.96875 C 1.03125 -8.351562 1.34375 -9.601562 1.96875 -10.71875 C 2.59375 -11.832031 3.4375 -12.695312 4.5 -13.3125 C 5.570312 -13.9375 6.757812 -14.25 8.0625 -14.25 C 9.351562 -14.25 10.535156 -13.9375 11.609375 -13.3125 C 12.679688 -12.695312 13.523438 -11.832031 14.140625 -10.71875 C 14.765625 -9.601562 15.078125 -8.351562 15.078125 -6.96875 Z M 12.546875 -6.96875 C 12.546875 -7.925781 12.347656 -8.78125 11.953125 -9.53125 C 11.554688 -10.289062 11.015625 -10.875 10.328125 -11.28125 C 9.648438 -11.695312 8.894531 -11.90625 8.0625 -11.90625 C 7.226562 -11.90625 6.46875 -11.695312 5.78125 -11.28125 C 5.101562 -10.875 4.5625 -10.289062 4.15625 -9.53125 C 3.757812 -8.78125 3.5625 -7.925781 3.5625 -6.96875 C 3.5625 -6.03125 3.757812 -5.1875 4.15625 -4.4375 C 4.5625 -3.695312 5.101562 -3.117188 5.78125 -2.703125 C 6.46875 -2.285156 7.226562 -2.078125 8.0625 -2.078125 C 8.894531 -2.078125 9.648438 -2.285156 10.328125 -2.703125 C 11.015625 -3.117188 11.554688 -3.695312 11.953125 -4.4375 C 12.347656 -5.1875 12.546875 -6.03125 12.546875 -6.96875 Z M 12.546875 -6.96875 "/>
            </g>
        </g>
    </g>
    <g fill="currentColor" fill-opacity="1">
        <g transform="translate(216.510658, 211.40933)">
            <g>
                <path d="M 17.875 -14.171875 C 20.976562 -14.171875 22.53125 -12.238281 22.53125 -8.375 L 22.53125 -1.28125 C 22.53125 -0.90625 22.410156 -0.597656 22.171875 -0.359375 C 21.941406 -0.117188 21.644531 0 21.28125 0 C 20.90625 0 20.597656 -0.125 20.359375 -0.375 C 20.117188 -0.625 20 -0.925781 20 -1.28125 L 20 -8.34375 C 20 -10.664062 19.023438 -11.828125 17.078125 -11.828125 C 16.378906 -11.828125 15.75 -11.671875 15.1875 -11.359375 C 14.632812 -11.054688 14.203125 -10.640625 13.890625 -10.109375 C 13.585938 -9.578125 13.4375 -8.988281 13.4375 -8.34375 L 13.4375 -1.28125 C 13.4375 -0.925781 13.316406 -0.625 13.078125 -0.375 C 12.835938 -0.125 12.53125 0 12.15625 0 C 11.78125 0 11.476562 -0.117188 11.25 -0.359375 C 11.019531 -0.597656 10.90625 -0.90625 10.90625 -1.28125 L 10.90625 -8.375 C 10.90625 -9.425781 10.679688 -10.265625 10.234375 -10.890625 C 9.796875 -11.515625 9.0625 -11.828125 8.03125 -11.828125 C 6.988281 -11.828125 6.125 -11.492188 5.4375 -10.828125 C 4.757812 -10.171875 4.421875 -9.351562 4.421875 -8.375 L 4.421875 -1.28125 C 4.421875 -0.925781 4.300781 -0.625 4.0625 -0.375 C 3.820312 -0.125 3.515625 0 3.140625 0 C 2.765625 0 2.460938 -0.117188 2.234375 -0.359375 C 2.003906 -0.597656 1.890625 -0.90625 1.890625 -1.28125 L 1.890625 -12.65625 C 1.890625 -13.007812 2.007812 -13.3125 2.25 -13.5625 C 2.488281 -13.8125 2.785156 -13.9375 3.140625 -13.9375 C 3.515625 -13.9375 3.820312 -13.8125 4.0625 -13.5625 C 4.300781 -13.3125 4.421875 -13.007812 4.421875 -12.65625 L 4.421875 -11.734375 C 4.878906 -12.421875 5.492188 -13 6.265625 -13.46875 C 7.035156 -13.9375 7.875 -14.171875 8.78125 -14.171875 C 10.976562 -14.171875 12.40625 -13.195312 13.0625 -11.25 C 13.445312 -11.988281 14.09375 -12.660156 15 -13.265625 C 15.90625 -13.867188 16.863281 -14.171875 17.875 -14.171875 Z M 17.875 -14.171875 "/>
            </g>
        </g>
    </g>
    <g fill="currentColor" fill-opacity="1">
        <g transform="translate(245.175972, 211.40933)">
            <g>
                <path d="M 17.875 -14.171875 C 20.976562 -14.171875 22.53125 -12.238281 22.53125 -8.375 L 22.53125 -1.28125 C 22.53125 -0.90625 22.410156 -0.597656 22.171875 -0.359375 C 21.941406 -0.117188 21.644531 0 21.28125 0 C 20.90625 0 20.597656 -0.125 20.359375 -0.375 C 20.117188 -0.625 20 -0.925781 20 -1.28125 L 20 -8.34375 C 20 -10.664062 19.023438 -11.828125 17.078125 -11.828125 C 16.378906 -11.828125 15.75 -11.671875 15.1875 -11.359375 C 14.632812 -11.054688 14.203125 -10.640625 13.890625 -10.109375 C 13.585938 -9.578125 13.4375 -8.988281 13.4375 -8.34375 L 13.4375 -1.28125 C 13.4375 -0.925781 13.316406 -0.625 13.078125 -0.375 C 12.835938 -0.125 12.53125 0 12.15625 0 C 11.78125 0 11.476562 -0.117188 11.25 -0.359375 C 11.019531 -0.597656 10.90625 -0.90625 10.90625 -1.28125 L 10.90625 -8.375 C 10.90625 -9.425781 10.679688 -10.265625 10.234375 -10.890625 C 9.796875 -11.515625 9.0625 -11.828125 8.03125 -11.828125 C 6.988281 -11.828125 6.125 -11.492188 5.4375 -10.828125 C 4.757812 -10.171875 4.421875 -9.351562 4.421875 -8.375 L 4.421875 -1.28125 C 4.421875 -0.925781 4.300781 -0.625 4.0625 -0.375 C 3.820312 -0.125 3.515625 0 3.140625 0 C 2.765625 0 2.460938 -0.117188 2.234375 -0.359375 C 2.003906 -0.597656 1.890625 -0.90625 1.890625 -1.28125 L 1.890625 -12.65625 C 1.890625 -13.007812 2.007812 -13.3125 2.25 -13.5625 C 2.488281 -13.8125 2.785156 -13.9375 3.140625 -13.9375 C 3.515625 -13.9375 3.820312 -13.8125 4.0625 -13.5625 C 4.300781 -13.3125 4.421875 -13.007812 4.421875 -12.65625 L 4.421875 -11.734375 C 4.878906 -12.421875 5.492188 -13 6.265625 -13.46875 C 7.035156 -13.9375 7.875 -14.171875 8.78125 -14.171875 C 10.976562 -14.171875 12.40625 -13.195312 13.0625 -11.25 C 13.445312 -11.988281 14.09375 -12.660156 15 -13.265625 C 15.90625 -13.867188 16.863281 -14.171875 17.875 -14.171875 Z M 17.875 -14.171875 "/>
            </g>
        </g>
    </g>
    <g fill="currentColor" fill-opacity="1">
        <g transform="translate(273.841282, 211.40933)">
            <g>
                <path d="M 12.265625 -13.9375 C 12.628906 -13.9375 12.929688 -13.8125 13.171875 -13.5625 C 13.410156 -13.3125 13.53125 -13.007812 13.53125 -12.65625 L 13.53125 -5.578125 C 13.53125 -3.734375 13.019531 -2.300781 12 -1.28125 C 10.988281 -0.269531 9.550781 0.234375 7.6875 0.234375 C 5.84375 0.234375 4.414062 -0.269531 3.40625 -1.28125 C 2.394531 -2.300781 1.890625 -3.734375 1.890625 -5.578125 L 1.890625 -12.65625 C 1.890625 -13.007812 2.007812 -13.3125 2.25 -13.5625 C 2.488281 -13.8125 2.785156 -13.9375 3.140625 -13.9375 C 3.515625 -13.9375 3.820312 -13.8125 4.0625 -13.5625 C 4.300781 -13.3125 4.421875 -13.007812 4.421875 -12.65625 L 4.421875 -5.578125 C 4.421875 -3.253906 5.507812 -2.09375 7.6875 -2.09375 C 8.769531 -2.09375 9.59375 -2.382812 10.15625 -2.96875 C 10.726562 -3.5625 11.015625 -4.429688 11.015625 -5.578125 L 11.015625 -12.65625 C 11.015625 -13.007812 11.132812 -13.3125 11.375 -13.5625 C 11.613281 -13.8125 11.910156 -13.9375 12.265625 -13.9375 Z M 12.265625 -13.9375 "/>
            </g>
        </g>
    </g>
    <g fill="currentColor" fill-opacity="1">
        <g transform="translate(293.519399, 211.40933)">
            <g>
                <path d="M 8.984375 -14.25 C 12.179688 -14.25 13.78125 -12.335938 13.78125 -8.515625 L 13.78125 -1.28125 C 13.78125 -0.925781 13.660156 -0.625 13.421875 -0.375 C 13.179688 -0.125 12.875 0 12.5 0 C 12.144531 0 11.847656 -0.125 11.609375 -0.375 C 11.367188 -0.625 11.25 -0.925781 11.25 -1.28125 L 11.25 -8.484375 C 11.25 -9.523438 11.007812 -10.351562 10.53125 -10.96875 C 10.050781 -11.59375 9.269531 -11.90625 8.1875 -11.90625 C 7.476562 -11.90625 6.835938 -11.75 6.265625 -11.4375 C 5.691406 -11.132812 5.238281 -10.722656 4.90625 -10.203125 C 4.582031 -9.679688 4.421875 -9.109375 4.421875 -8.484375 L 4.421875 -1.28125 C 4.421875 -0.925781 4.300781 -0.625 4.0625 -0.375 C 3.820312 -0.125 3.515625 0 3.140625 0 C 2.765625 0 2.460938 -0.117188 2.234375 -0.359375 C 2.003906 -0.597656 1.890625 -0.90625 1.890625 -1.28125 L 1.890625 -12.65625 C 1.890625 -13.007812 2.007812 -13.3125 2.25 -13.5625 C 2.488281 -13.8125 2.785156 -13.9375 3.140625 -13.9375 C 3.515625 -13.9375 3.820312 -13.8125 4.0625 -13.5625 C 4.300781 -13.3125 4.421875 -13.007812 4.421875 -12.65625 L 4.421875 -11.734375 C 4.878906 -12.441406 5.519531 -13.035156 6.34375 -13.515625 C 7.164062 -14.003906 8.046875 -14.25 8.984375 -14.25 Z M 8.984375 -14.25 "/>
            </g>
        </g>
    </g>
    <g fill="currentColor" fill-opacity="1">
        <g transform="translate(313.436825, 211.40933)">
            <g>
                <path d="M 4.28125 -1.28125 C 4.28125 -0.925781 4.160156 -0.625 3.921875 -0.375 C 3.679688 -0.125 3.375 0 3 0 C 2.644531 0 2.347656 -0.125 2.109375 -0.375 C 1.867188 -0.625 1.75 -0.925781 1.75 -1.28125 L 1.75 -12.796875 C 1.75 -13.148438 1.867188 -13.445312 2.109375 -13.6875 C 2.347656 -13.9375 2.644531 -14.0625 3 -14.0625 C 3.375 -14.0625 3.679688 -13.9375 3.921875 -13.6875 C 4.160156 -13.445312 4.28125 -13.148438 4.28125 -12.796875 Z M 3 -15.828125 C 2.488281 -15.828125 2.117188 -15.914062 1.890625 -16.09375 C 1.671875 -16.28125 1.5625 -16.582031 1.5625 -17 L 1.5625 -17.421875 C 1.5625 -17.847656 1.679688 -18.148438 1.921875 -18.328125 C 2.160156 -18.503906 2.53125 -18.59375 3.03125 -18.59375 C 3.519531 -18.59375 3.875 -18.5 4.09375 -18.3125 C 4.320312 -18.125 4.4375 -17.828125 4.4375 -17.421875 L 4.4375 -17 C 4.4375 -16.570312 4.320312 -16.269531 4.09375 -16.09375 C 3.863281 -15.914062 3.5 -15.828125 3 -15.828125 Z M 3 -15.828125 "/>
            </g>
        </g>
    </g>
    <g fill="currentColor" fill-opacity="1">
        <g transform="translate(323.728922, 211.40933)">
            <g>
                <path d="M 5.671875 -11.46875 L 5.671875 -3.53125 C 5.671875 -2.644531 6.066406 -2.203125 6.859375 -2.203125 C 6.984375 -2.203125 7.148438 -2.234375 7.359375 -2.296875 C 7.578125 -2.359375 7.75 -2.390625 7.875 -2.390625 C 8.101562 -2.390625 8.296875 -2.289062 8.453125 -2.09375 C 8.617188 -1.90625 8.703125 -1.660156 8.703125 -1.359375 C 8.703125 -0.984375 8.488281 -0.660156 8.0625 -0.390625 C 7.632812 -0.128906 7.15625 0 6.625 0 C 6.039062 0 5.503906 -0.0625 5.015625 -0.1875 C 4.523438 -0.3125 4.085938 -0.625 3.703125 -1.125 C 3.328125 -1.632812 3.140625 -2.40625 3.140625 -3.4375 L 3.140625 -11.46875 L 1.59375 -11.46875 C 1.257812 -11.46875 0.976562 -11.578125 0.75 -11.796875 C 0.53125 -12.015625 0.421875 -12.289062 0.421875 -12.625 C 0.421875 -12.96875 0.53125 -13.242188 0.75 -13.453125 C 0.976562 -13.671875 1.257812 -13.78125 1.59375 -13.78125 L 3.140625 -13.78125 L 3.140625 -16.015625 C 3.140625 -16.367188 3.257812 -16.664062 3.5 -16.90625 C 3.738281 -17.15625 4.046875 -17.28125 4.421875 -17.28125 C 4.773438 -17.28125 5.070312 -17.15625 5.3125 -16.90625 C 5.550781 -16.664062 5.671875 -16.367188 5.671875 -16.015625 L 5.671875 -13.78125 L 7.875 -13.78125 C 8.207031 -13.78125 8.484375 -13.664062 8.703125 -13.4375 C 8.929688 -13.21875 9.046875 -12.941406 9.046875 -12.609375 C 9.046875 -12.265625 8.929688 -11.988281 8.703125 -11.78125 C 8.484375 -11.570312 8.207031 -11.46875 7.875 -11.46875 Z M 5.671875 -11.46875 "/>
            </g>
        </g>
    </g>
    <g fill="currentColor" fill-opacity="1">
        <g transform="translate(338.089186, 211.40933)">
            <g>
                <path d="M 12.265625 -14.0625 C 12.628906 -14.0625 12.929688 -13.9375 13.171875 -13.6875 C 13.410156 -13.445312 13.53125 -13.148438 13.53125 -12.796875 L 13.53125 -1.296875 C 13.53125 0.910156 12.914062 2.5625 11.6875 3.65625 C 10.46875 4.757812 8.859375 5.3125 6.859375 5.3125 C 6.203125 5.3125 5.554688 5.25 4.921875 5.125 C 4.285156 5.007812 3.757812 4.84375 3.34375 4.625 C 2.6875 4.320312 2.359375 3.914062 2.359375 3.40625 C 2.359375 3.3125 2.378906 3.195312 2.421875 3.0625 C 2.523438 2.757812 2.675781 2.523438 2.875 2.359375 C 3.070312 2.203125 3.289062 2.125 3.53125 2.125 C 3.675781 2.125 3.8125 2.148438 3.9375 2.203125 C 4.488281 2.453125 4.972656 2.644531 5.390625 2.78125 C 5.816406 2.925781 6.316406 3 6.890625 3 C 9.640625 3 11.015625 1.59375 11.015625 -1.21875 L 11.015625 -1.75 C 10.535156 -1.113281 9.914062 -0.617188 9.15625 -0.265625 C 8.40625 0.0859375 7.539062 0.265625 6.5625 0.265625 C 5.09375 0.265625 3.945312 -0.203125 3.125 -1.140625 C 2.300781 -2.078125 1.890625 -3.3125 1.890625 -4.84375 L 1.890625 -12.796875 C 1.890625 -13.160156 2.003906 -13.460938 2.234375 -13.703125 C 2.460938 -13.941406 2.765625 -14.0625 3.140625 -14.0625 C 3.515625 -14.0625 3.820312 -13.9375 4.0625 -13.6875 C 4.300781 -13.445312 4.421875 -13.148438 4.421875 -12.796875 L 4.421875 -5.5 C 4.421875 -4.332031 4.675781 -3.46875 5.1875 -2.90625 C 5.695312 -2.351562 6.476562 -2.078125 7.53125 -2.078125 C 8.539062 -2.078125 9.375 -2.394531 10.03125 -3.03125 C 10.6875 -3.664062 11.015625 -4.488281 11.015625 -5.5 L 11.015625 -12.796875 C 11.015625 -13.160156 11.128906 -13.460938 11.359375 -13.703125 C 11.585938 -13.941406 11.890625 -14.0625 12.265625 -14.0625 Z M 12.265625 -14.0625 "/>
            </g>
        </g>
    </g>
</svg>
