<svg xmlns="http://www.w3.org/2000/svg" xmlns:xlink="http://www.w3.org/1999/xlink" zoomAndPan="magnify"
     preserveAspectRatio="xMidYMid meet" version="1.0" viewBox="185.48 180.58 609.89 149.1">
    <defs>
        <g></g>
    </defs>
    <g fill="currentColor" fill-opacity="1">
        <g transform="translate(175.381434, 319.438945)">
            <g>
                <path d="M 10.09375 -138.859375 L 50.328125 -138.859375 C 69.628906 -138.859375 86.125 -132.265625 99.8125 -119.078125 C 113.5 -105.890625 120.34375 -89.367188 120.34375 -69.515625 C 120.34375 -49.535156 113.523438 -32.953125 99.890625 -19.765625 C 86.253906 -6.585938 69.734375 0 50.328125 0 L 10.09375 0 Z M 41.734375 -28.28125 L 46.625 -28.28125 C 58.175781 -28.28125 67.625 -32.175781 74.96875 -39.96875 C 82.320312 -47.769531 86.054688 -57.5625 86.171875 -69.34375 C 86.171875 -81.125 82.492188 -90.941406 75.140625 -98.796875 C 67.796875 -106.648438 58.289062 -110.578125 46.625 -110.578125 L 41.734375 -110.578125 Z M 41.734375 -28.28125 "></path>
            </g>
        </g>
    </g>
    <g fill="currentColor" fill-opacity="1">
        <g transform="translate(283.770064, 319.438945)">
            <g>
                <path d="M 140.03125 0 L 99.140625 0 L 66.3125 -47.296875 L 33.5 0 L -5.71875 0 L 46.796875 -74.734375 L 3.03125 -138.859375 L 40.734375 -138.859375 L 66.3125 -100.984375 L 91.90625 -138.859375 L 131.28125 -138.859375 L 85.84375 -74.734375 Z M 140.03125 0 "></path>
            </g>
        </g>
    </g>
    <g fill="currentColor" fill-opacity="1">
        <g transform="translate(434.426044, 317.332366)">
            <g>
                <path d="M 35.9375 -40.6875 C 36.925781 -40.15625 37.421875 -39.332031 37.421875 -38.21875 C 37.421875 -37.476562 37.171875 -36.800781 36.671875 -36.1875 C 36.179688 -35.53125 35.503906 -35.203125 34.640625 -35.203125 C 34.066406 -35.203125 33.507812 -35.34375 32.96875 -35.625 C 30.414062 -37.070312 27.660156 -37.796875 24.703125 -37.796875 C 21.609375 -37.796875 18.878906 -37.113281 16.515625 -35.75 C 14.148438 -34.394531 12.304688 -32.492188 10.984375 -30.046875 C 9.671875 -27.597656 9.015625 -24.785156 9.015625 -21.609375 C 9.015625 -18.191406 9.691406 -15.25 11.046875 -12.78125 C 12.410156 -10.3125 14.285156 -8.425781 16.671875 -7.125 C 19.054688 -5.832031 21.734375 -5.1875 24.703125 -5.1875 C 27.742188 -5.1875 30.5 -5.925781 32.96875 -7.40625 C 33.46875 -7.65625 34.003906 -7.78125 34.578125 -7.78125 C 35.484375 -7.78125 36.203125 -7.429688 36.734375 -6.734375 C 37.234375 -6.109375 37.484375 -5.445312 37.484375 -4.75 C 37.484375 -4.257812 37.347656 -3.796875 37.078125 -3.359375 C 36.804688 -2.929688 36.445312 -2.59375 36 -2.34375 C 34.394531 -1.4375 32.59375 -0.710938 30.59375 -0.171875 C 28.601562 0.359375 26.640625 0.625 24.703125 0.625 C 20.703125 0.625 17.023438 -0.257812 13.671875 -2.03125 C 10.316406 -3.800781 7.640625 -6.375 5.640625 -9.75 C 3.648438 -13.125 2.65625 -17.078125 2.65625 -21.609375 C 2.65625 -25.765625 3.609375 -29.519531 5.515625 -32.875 C 7.429688 -36.238281 10.066406 -38.875 13.421875 -40.78125 C 16.785156 -42.695312 20.546875 -43.65625 24.703125 -43.65625 C 28.691406 -43.65625 32.4375 -42.664062 35.9375 -40.6875 Z M 35.9375 -40.6875 "></path>
            </g>
        </g>
    </g>
    <g fill="currentColor" fill-opacity="1">
        <g transform="translate(477.527434, 317.332366)">
            <g>
                <path d="M 35.015625 -16.171875 C 35.015625 -12.960938 34.289062 -10.082031 32.84375 -7.53125 C 31.40625 -4.976562 29.441406 -2.976562 26.953125 -1.53125 C 24.460938 -0.09375 21.710938 0.625 18.703125 0.625 C 15.703125 0.625 12.957031 -0.09375 10.46875 -1.53125 C 7.976562 -2.976562 6.007812 -4.976562 4.5625 -7.53125 C 3.125 -10.082031 2.40625 -12.960938 2.40625 -16.171875 C 2.40625 -19.390625 3.125 -22.296875 4.5625 -24.890625 C 6.007812 -27.484375 7.976562 -29.5 10.46875 -30.9375 C 12.957031 -32.375 15.703125 -33.09375 18.703125 -33.09375 C 21.710938 -33.09375 24.460938 -32.375 26.953125 -30.9375 C 29.441406 -29.5 31.40625 -27.484375 32.84375 -24.890625 C 34.289062 -22.296875 35.015625 -19.390625 35.015625 -16.171875 Z M 29.140625 -16.171875 C 29.140625 -18.398438 28.675781 -20.390625 27.75 -22.140625 C 26.832031 -23.890625 25.578125 -25.242188 23.984375 -26.203125 C 22.398438 -27.171875 20.640625 -27.65625 18.703125 -27.65625 C 16.773438 -27.65625 15.015625 -27.171875 13.421875 -26.203125 C 11.835938 -25.242188 10.582031 -23.890625 9.65625 -22.140625 C 8.738281 -20.390625 8.28125 -18.398438 8.28125 -16.171875 C 8.28125 -13.992188 8.738281 -12.039062 9.65625 -10.3125 C 10.582031 -8.582031 11.835938 -7.234375 13.421875 -6.265625 C 15.015625 -5.296875 16.773438 -4.8125 18.703125 -4.8125 C 20.640625 -4.8125 22.398438 -5.296875 23.984375 -6.265625 C 25.578125 -7.234375 26.832031 -8.582031 27.75 -10.3125 C 28.675781 -12.039062 29.140625 -13.992188 29.140625 -16.171875 Z M 29.140625 -16.171875 "></path>
            </g>
        </g>
    </g>
    <g fill="currentColor" fill-opacity="1">
        <g transform="translate(518.652866, 317.332366)">
            <g>
                <path d="M 41.5 -32.90625 C 48.695312 -32.90625 52.296875 -28.421875 52.296875 -19.453125 L 52.296875 -2.96875 C 52.296875 -2.101562 52.03125 -1.390625 51.5 -0.828125 C 50.96875 -0.273438 50.269531 0 49.40625 0 C 48.539062 0 47.828125 -0.285156 47.265625 -0.859375 C 46.710938 -1.441406 46.4375 -2.144531 46.4375 -2.96875 L 46.4375 -19.390625 C 46.4375 -24.785156 44.171875 -27.484375 39.640625 -27.484375 C 38.035156 -27.484375 36.582031 -27.117188 35.28125 -26.390625 C 33.988281 -25.671875 32.984375 -24.691406 32.265625 -23.453125 C 31.546875 -22.222656 31.1875 -20.867188 31.1875 -19.390625 L 31.1875 -2.96875 C 31.1875 -2.144531 30.90625 -1.441406 30.34375 -0.859375 C 29.789062 -0.285156 29.082031 0 28.21875 0 C 27.351562 0 26.648438 -0.273438 26.109375 -0.828125 C 25.578125 -1.390625 25.3125 -2.101562 25.3125 -2.96875 L 25.3125 -19.453125 C 25.3125 -21.878906 24.796875 -23.820312 23.765625 -25.28125 C 22.742188 -26.75 21.039062 -27.484375 18.65625 -27.484375 C 16.21875 -27.484375 14.207031 -26.707031 12.625 -25.15625 C 11.039062 -23.613281 10.25 -21.710938 10.25 -19.453125 L 10.25 -2.96875 C 10.25 -2.144531 9.96875 -1.441406 9.40625 -0.859375 C 8.851562 -0.285156 8.144531 0 7.28125 0 C 6.414062 0 5.71875 -0.273438 5.1875 -0.828125 C 4.65625 -1.390625 4.390625 -2.101562 4.390625 -2.96875 L 4.390625 -29.390625 C 4.390625 -30.210938 4.664062 -30.910156 5.21875 -31.484375 C 5.769531 -32.066406 6.457031 -32.359375 7.28125 -32.359375 C 8.144531 -32.359375 8.851562 -32.066406 9.40625 -31.484375 C 9.96875 -30.910156 10.25 -30.210938 10.25 -29.390625 L 10.25 -27.234375 C 11.320312 -28.835938 12.753906 -30.179688 14.546875 -31.265625 C 16.335938 -32.359375 18.28125 -32.90625 20.375 -32.90625 C 25.476562 -32.90625 28.789062 -30.644531 30.3125 -26.125 C 31.21875 -27.851562 32.71875 -29.414062 34.8125 -30.8125 C 36.914062 -32.207031 39.144531 -32.90625 41.5 -32.90625 Z M 41.5 -32.90625 "></path>
            </g>
        </g>
    </g>
    <g fill="currentColor" fill-opacity="1">
        <g transform="translate(579.044047, 317.332366)">
            <g>
                <path d="M 41.5 -32.90625 C 48.695312 -32.90625 52.296875 -28.421875 52.296875 -19.453125 L 52.296875 -2.96875 C 52.296875 -2.101562 52.03125 -1.390625 51.5 -0.828125 C 50.96875 -0.273438 50.269531 0 49.40625 0 C 48.539062 0 47.828125 -0.285156 47.265625 -0.859375 C 46.710938 -1.441406 46.4375 -2.144531 46.4375 -2.96875 L 46.4375 -19.390625 C 46.4375 -24.785156 44.171875 -27.484375 39.640625 -27.484375 C 38.035156 -27.484375 36.582031 -27.117188 35.28125 -26.390625 C 33.988281 -25.671875 32.984375 -24.691406 32.265625 -23.453125 C 31.546875 -22.222656 31.1875 -20.867188 31.1875 -19.390625 L 31.1875 -2.96875 C 31.1875 -2.144531 30.90625 -1.441406 30.34375 -0.859375 C 29.789062 -0.285156 29.082031 0 28.21875 0 C 27.351562 0 26.648438 -0.273438 26.109375 -0.828125 C 25.578125 -1.390625 25.3125 -2.101562 25.3125 -2.96875 L 25.3125 -19.453125 C 25.3125 -21.878906 24.796875 -23.820312 23.765625 -25.28125 C 22.742188 -26.75 21.039062 -27.484375 18.65625 -27.484375 C 16.21875 -27.484375 14.207031 -26.707031 12.625 -25.15625 C 11.039062 -23.613281 10.25 -21.710938 10.25 -19.453125 L 10.25 -2.96875 C 10.25 -2.144531 9.96875 -1.441406 9.40625 -0.859375 C 8.851562 -0.285156 8.144531 0 7.28125 0 C 6.414062 0 5.71875 -0.273438 5.1875 -0.828125 C 4.65625 -1.390625 4.390625 -2.101562 4.390625 -2.96875 L 4.390625 -29.390625 C 4.390625 -30.210938 4.664062 -30.910156 5.21875 -31.484375 C 5.769531 -32.066406 6.457031 -32.359375 7.28125 -32.359375 C 8.144531 -32.359375 8.851562 -32.066406 9.40625 -31.484375 C 9.96875 -30.910156 10.25 -30.210938 10.25 -29.390625 L 10.25 -27.234375 C 11.320312 -28.835938 12.753906 -30.179688 14.546875 -31.265625 C 16.335938 -32.359375 18.28125 -32.90625 20.375 -32.90625 C 25.476562 -32.90625 28.789062 -30.644531 30.3125 -26.125 C 31.21875 -27.851562 32.71875 -29.414062 34.8125 -30.8125 C 36.914062 -32.207031 39.144531 -32.90625 41.5 -32.90625 Z M 41.5 -32.90625 "></path>
            </g>
        </g>
    </g>
    <g fill="currentColor" fill-opacity="1">
        <g transform="translate(639.43522, 317.332366)">
            <g>
                <path d="M 28.46875 -32.359375 C 29.332031 -32.359375 30.039062 -32.066406 30.59375 -31.484375 C 31.15625 -30.910156 31.4375 -30.210938 31.4375 -29.390625 L 31.4375 -12.96875 C 31.4375 -8.6875 30.25 -5.359375 27.875 -2.984375 C 25.507812 -0.617188 22.164062 0.5625 17.84375 0.5625 C 13.5625 0.5625 10.25 -0.617188 7.90625 -2.984375 C 5.5625 -5.359375 4.390625 -8.6875 4.390625 -12.96875 L 4.390625 -29.390625 C 4.390625 -30.210938 4.664062 -30.910156 5.21875 -31.484375 C 5.769531 -32.066406 6.457031 -32.359375 7.28125 -32.359375 C 8.144531 -32.359375 8.851562 -32.066406 9.40625 -31.484375 C 9.96875 -30.910156 10.25 -30.210938 10.25 -29.390625 L 10.25 -12.96875 C 10.25 -7.570312 12.78125 -4.875 17.84375 -4.875 C 20.351562 -4.875 22.265625 -5.550781 23.578125 -6.90625 C 24.898438 -8.269531 25.5625 -10.289062 25.5625 -12.96875 L 25.5625 -29.390625 C 25.5625 -30.210938 25.835938 -30.910156 26.390625 -31.484375 C 26.953125 -32.066406 27.644531 -32.359375 28.46875 -32.359375 Z M 28.46875 -32.359375 "></path>
            </g>
        </g>
    </g>
    <g fill="currentColor" fill-opacity="1">
        <g transform="translate(678.955174, 317.332366)">
            <g>
                <path d="M 20.875 -33.09375 C 28.28125 -33.09375 31.984375 -28.648438 31.984375 -19.765625 L 31.984375 -2.96875 C 31.984375 -2.144531 31.703125 -1.441406 31.140625 -0.859375 C 30.585938 -0.285156 29.878906 0 29.015625 0 C 28.191406 0 27.503906 -0.285156 26.953125 -0.859375 C 26.398438 -1.441406 26.125 -2.144531 26.125 -2.96875 L 26.125 -19.703125 C 26.125 -22.128906 25.566406 -24.0625 24.453125 -25.5 C 23.335938 -26.9375 21.523438 -27.65625 19.015625 -27.65625 C 17.367188 -27.65625 15.875 -27.296875 14.53125 -26.578125 C 13.195312 -25.859375 12.148438 -24.890625 11.390625 -23.671875 C 10.628906 -22.460938 10.25 -21.140625 10.25 -19.703125 L 10.25 -2.96875 C 10.25 -2.144531 9.96875 -1.441406 9.40625 -0.859375 C 8.851562 -0.285156 8.144531 0 7.28125 0 C 6.414062 0 5.71875 -0.273438 5.1875 -0.828125 C 4.65625 -1.390625 4.390625 -2.101562 4.390625 -2.96875 L 4.390625 -29.390625 C 4.390625 -30.210938 4.664062 -30.910156 5.21875 -31.484375 C 5.769531 -32.066406 6.457031 -32.359375 7.28125 -32.359375 C 8.144531 -32.359375 8.851562 -32.066406 9.40625 -31.484375 C 9.96875 -30.910156 10.25 -30.210938 10.25 -29.390625 L 10.25 -27.234375 C 11.320312 -28.878906 12.8125 -30.265625 14.71875 -31.390625 C 16.632812 -32.523438 18.6875 -33.09375 20.875 -33.09375 Z M 20.875 -33.09375 "></path>
            </g>
        </g>
    </g>
    <g fill="currentColor" fill-opacity="1">
        <g transform="translate(719.030869, 317.332366)">
            <g>
                <path d="M 9.9375 -2.96875 C 9.9375 -2.144531 9.660156 -1.441406 9.109375 -0.859375 C 8.554688 -0.285156 7.847656 0 6.984375 0 C 6.160156 0 5.46875 -0.285156 4.90625 -0.859375 C 4.351562 -1.441406 4.078125 -2.144531 4.078125 -2.96875 L 4.078125 -29.703125 C 4.078125 -30.523438 4.351562 -31.222656 4.90625 -31.796875 C 5.46875 -32.378906 6.160156 -32.671875 6.984375 -32.671875 C 7.847656 -32.671875 8.554688 -32.378906 9.109375 -31.796875 C 9.660156 -31.222656 9.9375 -30.523438 9.9375 -29.703125 Z M 6.984375 -36.734375 C 5.785156 -36.734375 4.929688 -36.945312 4.421875 -37.375 C 3.910156 -37.8125 3.65625 -38.503906 3.65625 -39.453125 L 3.65625 -40.453125 C 3.65625 -41.429688 3.929688 -42.125 4.484375 -42.53125 C 5.035156 -42.945312 5.890625 -43.15625 7.046875 -43.15625 C 8.203125 -43.15625 9.035156 -42.9375 9.546875 -42.5 C 10.054688 -42.070312 10.3125 -41.390625 10.3125 -40.453125 L 10.3125 -39.453125 C 10.3125 -38.460938 10.046875 -37.757812 9.515625 -37.34375 C 8.984375 -36.9375 8.140625 -36.734375 6.984375 -36.734375 Z M 6.984375 -36.734375 "></path>
            </g>
        </g>
    </g>
    <g fill="currentColor" fill-opacity="1">
        <g transform="translate(736.753379, 317.332366)">
            <g>
                <path d="M 13.15625 -26.609375 L 13.15625 -8.21875 C 13.15625 -6.15625 14.082031 -5.125 15.9375 -5.125 C 16.21875 -5.125 16.601562 -5.195312 17.09375 -5.34375 C 17.59375 -5.488281 17.988281 -5.5625 18.28125 -5.5625 C 18.8125 -5.5625 19.257812 -5.332031 19.625 -4.875 C 20 -4.425781 20.1875 -3.851562 20.1875 -3.15625 C 20.1875 -2.289062 19.691406 -1.546875 18.703125 -0.921875 C 17.722656 -0.304688 16.613281 0 15.375 0 C 14.019531 0 12.773438 -0.140625 11.640625 -0.421875 C 10.503906 -0.710938 9.492188 -1.445312 8.609375 -2.625 C 7.722656 -3.800781 7.28125 -5.582031 7.28125 -7.96875 L 7.28125 -26.609375 L 3.703125 -26.609375 C 2.921875 -26.609375 2.269531 -26.863281 1.75 -27.375 C 1.238281 -27.894531 0.984375 -28.546875 0.984375 -29.328125 C 0.984375 -30.109375 1.238281 -30.742188 1.75 -31.234375 C 2.269531 -31.734375 2.921875 -31.984375 3.703125 -31.984375 L 7.28125 -31.984375 L 7.28125 -37.171875 C 7.28125 -37.992188 7.554688 -38.691406 8.109375 -39.265625 C 8.671875 -39.847656 9.382812 -40.140625 10.25 -40.140625 C 11.070312 -40.140625 11.757812 -39.847656 12.3125 -39.265625 C 12.875 -38.691406 13.15625 -37.992188 13.15625 -37.171875 L 13.15625 -31.984375 L 18.28125 -31.984375 C 19.0625 -31.984375 19.707031 -31.722656 20.21875 -31.203125 C 20.738281 -30.691406 21 -30.046875 21 -29.265625 C 21 -28.484375 20.738281 -27.84375 20.21875 -27.34375 C 19.707031 -26.851562 19.0625 -26.609375 18.28125 -26.609375 Z M 13.15625 -26.609375 "></path>
            </g>
        </g>
    </g>
    <g fill="currentColor" fill-opacity="1">
        <g transform="translate(763.923486, 317.332366)">
            <g>
                <path d="M 28.46875 -32.671875 C 29.332031 -32.671875 30.039062 -32.378906 30.59375 -31.796875 C 31.15625 -31.222656 31.4375 -30.523438 31.4375 -29.703125 L 31.4375 -3.03125 C 31.4375 2.113281 30.015625 5.960938 27.171875 8.515625 C 24.328125 11.066406 20.582031 12.34375 15.9375 12.34375 C 14.40625 12.34375 12.898438 12.195312 11.421875 11.90625 C 9.941406 11.625 8.726562 11.238281 7.78125 10.75 C 6.257812 10.039062 5.5 9.09375 5.5 7.90625 C 5.5 7.695312 5.539062 7.425781 5.625 7.09375 C 5.863281 6.394531 6.207031 5.859375 6.65625 5.484375 C 7.113281 5.117188 7.632812 4.9375 8.21875 4.9375 C 8.539062 4.9375 8.847656 5 9.140625 5.125 C 10.410156 5.695312 11.539062 6.148438 12.53125 6.484375 C 13.519531 6.816406 14.675781 6.984375 16 6.984375 C 22.375 6.984375 25.5625 3.707031 25.5625 -2.84375 L 25.5625 -4.078125 C 24.445312 -2.597656 23.015625 -1.441406 21.265625 -0.609375 C 19.523438 0.210938 17.519531 0.625 15.25 0.625 C 11.832031 0.625 9.164062 -0.460938 7.25 -2.640625 C 5.34375 -4.828125 4.390625 -7.691406 4.390625 -11.234375 L 4.390625 -29.703125 C 4.390625 -30.566406 4.65625 -31.273438 5.1875 -31.828125 C 5.71875 -32.390625 6.414062 -32.671875 7.28125 -32.671875 C 8.144531 -32.671875 8.851562 -32.378906 9.40625 -31.796875 C 9.96875 -31.222656 10.25 -30.523438 10.25 -29.703125 L 10.25 -12.78125 C 10.25 -10.0625 10.84375 -8.050781 12.03125 -6.75 C 13.226562 -5.457031 15.039062 -4.8125 17.46875 -4.8125 C 19.820312 -4.8125 21.757812 -5.550781 23.28125 -7.03125 C 24.800781 -8.519531 25.5625 -10.4375 25.5625 -12.78125 L 25.5625 -29.703125 C 25.5625 -30.566406 25.828125 -31.273438 26.359375 -31.828125 C 26.898438 -32.390625 27.601562 -32.671875 28.46875 -32.671875 Z M 28.46875 -32.671875 "></path>
            </g>
        </g>
    </g>
</svg>