<svg version="1.1" xmlns="http://www.w3.org/2000/svg" viewBox="0 0 828 183">
    <path d="M0 0 C5.10257312 0.68671768 6.90024037 2.35048285 10.09765625 6.2265625 C18.51128672 18.49284101 24.20364433 32.41370145 24.0625 47.375 C24.05347656 48.62023438 24.04445313 49.86546875 24.03515625 51.1484375 C24.02355469 52.08945312 24.01195313 53.03046875 24 54 C24.90621094 53.79503906 25.81242187 53.59007812 26.74609375 53.37890625 C40.26777045 50.38839786 40.26777045 50.38839786 47 50 C47.84046875 49.94714844 48.6809375 49.89429688 49.546875 49.83984375 C59.79186384 49.5143814 71.22936894 50.74312298 81 54 C80.96519531 53.14019531 80.93039063 52.28039063 80.89453125 51.39453125 C80.46789313 32.76466652 86.44039076 15.91740483 99 2 C99.66 1.34 100.32 0.68 101 0 C102.32 0 103.64 0 105 0 C104.59404251 3.85659617 103.62057298 6.98999172 102.0625 10.5 C96.20397437 24.82559186 97.547344 40.39801213 100.75 55.1875 C100.89453613 55.89430908 101.03907227 56.60111816 101.18798828 57.3293457 C102.36893277 62.27417836 104.21433509 64.69772702 108 68 C108.97217563 68.95745572 109.93684283 69.92258484 110.89453125 70.89453125 C111.37470703 71.37470703 111.85488281 71.85488281 112.34960938 72.34960938 C114.56640625 74.56640625 116.78320313 76.78320313 119 79 C135.38711354 71.89730138 144.9884351 62.87942459 153 47 C154.07404245 44.91186166 155.15657375 42.82805388 156.25 40.75 C156.68828125 39.87859375 157.1265625 39.0071875 157.578125 38.109375 C159.16244773 35.75900611 160.38604178 35.00536855 163 34 C163.27751384 39.5794887 162.42371075 43.98021621 160.625 49.25 C160.36243408 50.02287354 160.09986816 50.79574707 159.8293457 51.59204102 C154.91909114 65.37985832 148.0530962 78.29531423 138 89 C137.32453125 89.73089844 136.6490625 90.46179688 135.953125 91.21484375 C132.65208338 94.65911238 132.65208338 94.65911238 131 96 C130.34 96 129.68 96 129 96 C129.2165625 96.71285156 129.433125 97.42570312 129.65625 98.16015625 C130.07390625 99.59681641 130.07390625 99.59681641 130.5 101.0625 C130.91765625 102.47208984 130.91765625 102.47208984 131.34375 103.91015625 C132.07354476 107.34627323 132.10495465 110.49713867 132 114 C148.98506124 114.6114622 160.51127931 110.20067706 174.7734375 101.26171875 C177.37895529 99.78525867 179.0518949 99.74730528 182 100 C182.33 100.99 182.66 101.98 183 103 C182.50113281 103.27070312 182.00226563 103.54140625 181.48828125 103.8203125 C175.92107053 107.15863993 172.02002056 111.0910314 167.8125 115.9375 C158.97005719 125.91095294 148.17129567 130.77296933 135 133 C134.01 133 133.02 133 132 133 C131.97421875 133.60585937 131.9484375 134.21171875 131.921875 134.8359375 C131.03216121 147.9794366 125.2747391 157.10015923 115.9375 166.125 C106.91079665 173.81838723 95.42445099 178.25135786 84 181 C82.9335022 181.26490234 82.9335022 181.26490234 81.84545898 181.53515625 C73.30867529 183.3897189 64.76379326 183.37222324 56.0690918 183.37060547 C53.46660507 183.3749514 50.86585717 183.41129535 48.26367188 183.44921875 C25.96176148 183.59927277 3.35553154 178.61682494 -13.27734375 162.83984375 C-20.31185418 155.41234391 -25.7460783 145.98284682 -26.125 135.5625 C-26.08375 134.716875 -26.0425 133.87125 -26 133 C-26.57105469 132.98582031 -27.14210937 132.97164062 -27.73046875 132.95703125 C-43.01362505 132.05802206 -54.67515952 124.90528064 -64.6875 113.875 C-65.22246094 113.26470947 -65.75742188 112.65441895 -66.30859375 112.02563477 C-68.83505248 109.17047062 -71.13664387 106.76927859 -74.39453125 104.7578125 C-75.25433594 104.17773438 -76.11414063 103.59765625 -77 103 C-77 102.01 -77 101.02 -77 100 C-71.03796202 100.44967257 -67.12705561 102.28840487 -62.0625 105.375 C-54.00505868 110.22040603 -46.08990348 114.15134589 -36.5 114.125 C-35.5615625 114.12757812 -34.623125 114.13015625 -33.65625 114.1328125 C-31.2785737 114.01392868 -29.27316904 113.67551722 -27 113 C-25.45835954 107.64922292 -24.23478554 102.58025167 -24 97 C-25.92325042 93.59243919 -28.75966673 92.08231253 -32 90 C-44.48888353 78.5316089 -56.8028246 55.76516328 -58.17578125 38.83203125 C-58.18543223 37.22031764 -58.10489081 35.60832578 -58 34 C-54.25215429 35.4509724 -53.07901702 37.10585329 -51.30078125 40.65625 C-50.81851074 41.59202881 -50.33624023 42.52780762 -49.83935547 43.49194336 C-49.33549316 44.48460205 -48.83163086 45.47726074 -48.3125 46.5 C-41.77158353 58.89431038 -35.14829424 67.58582364 -23 75 C-22.25105469 75.45761719 -21.50210938 75.91523437 -20.73046875 76.38671875 C-18.4311668 77.7312293 -18.4311668 77.7312293 -15 79 C-11.31504119 77.80628095 -9.0736021 75.24761234 -6.4375 72.5 C-4.0038015 69.97190847 -1.92990599 67.95327066 1 66 C8.01829251 47.36780707 9.04925074 26.67386421 2 8 C1.62746094 7.30132812 1.25492187 6.60265625 0.87109375 5.8828125 C0 4 0 4 0 0 Z "
          fill="bla" transform="translate(77,0)"/>
    <path d="M0 0 C1.16781006 0.00523682 2.33562012 0.01047363 3.53881836 0.01586914 C4.67327393 0.0183667 5.80772949 0.02086426 6.9765625 0.0234375 C8.44392924 0.03260151 9.91129573 0.04180402 11.37866211 0.05102539 C13.86490731 0.06251324 16.3511542 0.07363955 18.83740234 0.08447266 C20.99698893 0.0941569 23.15657552 0.10384115 25.31616211 0.11352539 C31.11319766 15.31256677 36.86326173 30.52793173 42.51538086 45.78149414 C42.77687675 46.48711864 43.03837265 47.19274315 43.30779266 47.91975021 C44.6549446 51.55553406 46.00138765 55.19157999 47.34747314 58.82775879 C56.0933012 82.45181082 64.86918945 106.0607672 73.94775391 129.55957031 C74.25169571 130.34955917 74.55563751 131.13954803 74.86878967 131.95347595 C75.42308046 133.39363054 75.98010305 134.83273824 76.54051208 136.27052307 C78.31616211 140.88876461 78.31616211 140.88876461 78.31616211 143.11352539 C69.40616211 143.11352539 60.49616211 143.11352539 51.31616211 143.11352539 C49.88756734 139.18233871 48.46194317 135.25032764 47.04370117 131.31542969 C46.56039076 129.97724371 46.07537613 128.63967196 45.58862305 127.30273438 C44.88913866 125.38057983 44.19581934 123.45629735 43.50366211 121.53149414 C42.87524414 119.7954895 42.87524414 119.7954895 42.23413086 118.02441406 C41.31616211 115.11352539 41.31616211 115.11352539 41.31616211 112.11352539 C21.18616211 112.11352539 1.05616211 112.11352539 -19.68383789 112.11352539 C-20.34383789 115.08352539 -21.00383789 118.05352539 -21.68383789 121.11352539 C-22.28816144 123.0251705 -22.93135641 124.9253898 -23.62915039 126.80493164 C-23.94899902 127.67577393 -24.26884766 128.54661621 -24.59838867 129.44384766 C-25.19756104 131.04377563 -25.19756104 131.04377563 -25.80883789 132.67602539 C-27.08758789 136.12040039 -28.36633789 139.56477539 -29.68383789 143.11352539 C-38.26383789 143.11352539 -46.84383789 143.11352539 -55.68383789 143.11352539 C-54.42352622 137.44212286 -53.34132791 132.74347911 -51.34326172 127.45043945 C-51.11612047 126.84367087 -50.88897923 126.23690229 -50.65495491 125.61174679 C-49.9059744 123.61534443 -49.14847632 121.62229324 -48.39086914 119.62915039 C-47.8501855 118.19317645 -47.31004333 116.75699853 -46.770401 115.32063293 C-45.32001169 111.46468398 -43.86222859 107.61157042 -42.40291595 103.75899124 C-40.88386605 99.74518115 -39.37132152 95.72892126 -37.8581543 91.71289062 C-35.68332281 85.94267901 -33.50607994 80.17338713 -31.32590485 74.40519238 C-27.75132205 64.94767491 -24.19028881 55.48514884 -20.63799858 46.01923752 C-19.03909124 41.75935495 -17.43842475 37.50013318 -15.83769703 33.24093437 C-14.57395925 29.87829078 -13.31084411 26.51541662 -12.04922485 23.15197754 C-10.657147 19.44135566 -9.26057848 15.73243338 -7.86352539 12.02368164 C-7.45127213 10.92304886 -7.03901886 9.82241608 -6.61427307 8.68843079 C-6.24003708 7.6969957 -5.86580109 6.70556061 -5.48022461 5.68408203 C-5.15529022 4.81981094 -4.83035583 3.95553986 -4.49557495 3.06507874 C-3.2899609 0.16657841 -3.26792661 0.13823214 0 0 Z M10.31616211 28.11352539 C7.98531878 34.81675662 5.65598603 41.52051145 3.32763672 48.22460938 C2.53760889 50.49881493 1.7472523 52.7729063 0.95654297 55.046875 C-0.18880137 58.34091718 -1.33290915 61.63538678 -2.47680664 64.92993164 C-2.82285446 65.92432755 -3.16890228 66.91872345 -3.5254364 67.94325256 C-6.31356185 75.97924977 -8.99336851 84.04211725 -11.68383789 92.11352539 C3.16616211 92.11352539 18.01616211 92.11352539 33.31616211 92.11352539 C31.37466306 84.99469556 29.38635108 78.14238284 26.88256836 71.23852539 C26.40375465 69.90265381 26.40375465 69.90265381 25.91526794 68.53979492 C24.90696904 65.72961755 23.89291617 62.92155812 22.87866211 60.11352539 C22.20315306 58.23345313 21.52802013 56.35324569 20.85327148 54.47290039 C17.69507523 45.67890976 14.52144426 36.89047436 11.31616211 28.11352539 C10.98616211 28.11352539 10.65616211 28.11352539 10.31616211 28.11352539 Z "
          fill="bla" transform="translate(333.683837890625,34.886474609375)"/>
    <path d="M0 0 C10.79760756 9.24575776 17.848265 20.83731877 20.26953125 34.9609375 C21.46082118 54.03782126 20.48733361 71.30359064 8.01171875 86.7578125 C-3.50417572 98.97725037 -17.60072283 104.91740999 -34.20654297 105.43164062 C-51.19244248 105.5962061 -66.23374628 102.20882726 -79.04296875 90.2109375 C-93.31809778 74.8080436 -95.53375615 57.97794323 -94.90966797 37.85498047 C-93.99073549 23.01434611 -86.20048558 11.06327816 -75.73046875 0.9609375 C-55.50759666 -16.34590247 -20.79275247 -15.52763489 0 0 Z M-62.73046875 21.9609375 C-69.73801905 31.68969388 -70.56707131 42.24850173 -69.73046875 53.9609375 C-68.05612486 64.21629381 -63.86548299 71.89314077 -55.828125 78.48828125 C-48.46273914 83.65913874 -39.35474773 84.77638113 -30.60546875 83.2734375 C-22.41567866 81.32531842 -15.86354287 77.76756864 -10.73046875 70.9609375 C-4.4112968 59.57989654 -2.42273643 46.15830687 -5.91796875 33.4609375 C-9.40711736 23.81731842 -15.22653206 17.06315636 -24.16796875 12.0234375 C-38.36403856 7.51674867 -52.83551322 11.00735136 -62.73046875 21.9609375 Z "
          fill="bla" transform="translate(625.73046875,74.0390625)"/>
    <path d="M0 0 C12.67721487 9.09820919 20.11145992 20.77906584 23.62890625 35.88671875 C24.14830675 40.57154638 24.19128384 45.17721061 24.12890625 49.88671875 C24.15210938 51.63855469 24.15210938 51.63855469 24.17578125 53.42578125 C24.10845953 68.60682978 18.92458929 81.80451543 8.671875 93.0078125 C-3.13847504 103.86972142 -17.47098068 108.29349443 -33.18359375 108.19921875 C-34.63717285 108.19184692 -34.63717285 108.19184692 -36.12011719 108.18432617 C-51.83744102 107.92729178 -64.94539126 102.84492114 -76.37109375 91.88671875 C-88.76554703 77.77744619 -92.47440687 61.49408941 -91.56640625 43.20166016 C-90.37719291 29.10650899 -84.78587012 15.63892485 -74.37109375 5.88671875 C-53.90325496 -11.16388087 -22.99607924 -13.60572796 0 0 Z M-57.87109375 23.26171875 C-58.74478437 24.44120109 -59.58015587 25.65021919 -60.37109375 26.88671875 C-60.7578125 27.48097656 -61.14453125 28.07523438 -61.54296875 28.6875 C-67.57789318 39.24861775 -67.30498609 52.35549084 -64.6875 63.90234375 C-62.19304112 71.84026623 -57.87179634 78.07462057 -50.7578125 82.51953125 C-41.15166451 87.27505006 -31.63436513 88.0637942 -21.37109375 84.88671875 C-12.29801122 80.89351504 -7.02593554 75.07793021 -2.99609375 66.13671875 C0.49655482 55.62942304 0.50799338 41.3645719 -4.05078125 31.2109375 C-8.73665312 22.96213938 -13.99258157 17.37879902 -23.140625 14.2890625 C-35.88377161 11.99038632 -48.6540778 13.31283057 -57.87109375 23.26171875 Z "
          fill="bla" transform="translate(804.37109375,71.11328125)"/>
    <path d="M0 0 C23.62596962 -2.50392422 23.62596962 -2.50392422 30.18017578 1.24804688 C33.69614528 4.71050565 35.65731374 9.05453109 37.71728516 13.48242188 C40.17287071 18.30198759 43.42828273 22.60499949 46.5625 27 C47.47684814 28.33562988 47.47684814 28.33562988 48.40966797 29.69824219 C48.9770166 30.51969727 49.54436523 31.34115234 50.12890625 32.1875 C50.63494385 32.92355469 51.14098145 33.65960938 51.66235352 34.41796875 C52.10377686 34.94003906 52.5452002 35.46210937 53 36 C53.66 36 54.32 36 55 36 C56.3249731 34.10485482 57.55295279 32.14172863 58.73828125 30.15625 C59.10092575 29.55373413 59.46357025 28.95121826 59.83720398 28.33044434 C61.00254488 26.39100791 62.1577036 24.4457298 63.3125 22.5 C64.07939255 21.21833953 64.84696293 19.93708439 65.61523438 18.65625 C65.98793961 18.032948 66.36064484 17.409646 66.74464417 16.76745605 C67.48828752 15.53017049 68.23740657 14.29615895 68.99205017 13.06555176 C70.53901167 10.53083421 71.97881173 8.0483345 73.17211914 5.32617188 C74.24839453 2.97490004 74.95747797 1.59468678 77 0 C81.64235536 -0.96282427 86.09820071 -0.75364052 90.8125 -0.5 C92.71032227 -0.44585937 92.71032227 -0.44585937 94.64648438 -0.390625 C97.76739744 -0.29640876 100.88215808 -0.16498197 104 0 C103.35284008 3.61055402 101.8280058 6.08483333 99.81640625 9.12890625 C99.14407959 10.15193848 98.47175293 11.1749707 97.77905273 12.22900391 C97.04035694 13.3402724 96.30150214 14.45143521 95.5625 15.5625 C94.80693971 16.70723363 94.05181955 17.85225788 93.29711914 18.99755859 C90.87335549 22.67077626 88.4373149 26.33576557 86 30 C85.14417387 31.28790201 84.28837979 32.57582531 83.43261719 33.86376953 C78.3009761 41.58425897 73.15592438 49.29570332 68 57 C72.31189592 63.87644543 76.74778755 70.62601465 81.4375 77.25 C82.64866438 78.97249674 83.85959151 80.69516033 85.0703125 82.41796875 C85.70227539 83.31563965 86.33423828 84.21331055 86.98535156 85.13818359 C90.60137854 90.27476481 94.21098089 95.41573589 97.8125 100.5625 C98.51238037 101.55604492 99.21226074 102.54958984 99.93334961 103.57324219 C100.58053955 104.49911133 101.22772949 105.42498047 101.89453125 106.37890625 C102.47050049 107.1994751 103.04646973 108.02004395 103.63989258 108.86547852 C105 111 105 111 106 114 C82.41044037 116.67403194 82.41044037 116.67403194 75.67333984 112.58935547 C71.87554119 108.80379791 69.54648212 104.19359892 67.22998047 99.40429688 C65.19618388 95.4287453 62.58568299 91.88028697 60 88.25 C58.7549452 86.4241295 57.51398779 84.59553342 56.2734375 82.76660156 C54.59846343 80.44296038 52.80154147 78.22627198 51 76 C50.22136597 77.3003418 50.22136597 77.3003418 49.42700195 78.62695312 C47.48018056 81.87774018 45.53234868 85.12792082 43.58422852 88.37792969 C42.74509034 89.77815795 41.90621746 91.17854523 41.06762695 92.57910156 C40.66181396 93.25682617 40.25600098 93.93455078 39.83789062 94.6328125 C39.43793381 95.30203735 39.03797699 95.97126221 38.62590027 96.6607666 C37.82829186 97.98698035 37.02404212 99.30922332 36.21308899 100.62731934 C34.57366439 103.29937757 33.05981645 105.86497025 31.7878418 108.73632812 C30.72075555 111.06978668 30.03657474 112.43215354 28 114 C23.35631317 114.95767024 18.90225304 114.75366493 14.1875 114.5 C12.92228516 114.46390625 11.65707031 114.4278125 10.35351562 114.390625 C7.23260256 114.29640876 4.11784192 114.16498197 1 114 C1.65417865 110.4785594 3.08833062 107.97308883 4.9921875 104.95703125 C5.91825806 103.48230347 5.91825806 103.48230347 6.86303711 101.9777832 C7.52698486 100.93323975 8.19093262 99.88869629 8.875 98.8125 C9.55248291 97.73766357 10.22996582 96.66282715 10.92797852 95.55541992 C14.89083514 89.28155967 18.89745613 83.03686336 22.9375 76.8125 C23.37328369 76.13775635 23.80906738 75.4630127 24.25805664 74.76782227 C26.32060153 71.5755358 28.40147033 68.39922764 30.5234375 65.24609375 C31.28704104 64.0811109 32.05009409 62.91576697 32.8125 61.75 C33.47894531 60.75484375 34.14539063 59.7596875 34.83203125 58.734375 C36.26468718 56.10435644 36.26468718 56.10435644 35.48828125 53.5703125 C33.59995965 50.30911667 31.54547585 47.20180254 29.375 44.125 C28.90352539 43.44808105 28.43205078 42.77116211 27.94628906 42.07373047 C26.89103474 40.5594506 25.83361497 39.04667821 24.77441406 37.53515625 C22.83001415 34.75713634 20.89480884 31.97285882 18.9609375 29.1875 C16.24174033 25.27193156 13.52108241 21.35739709 10.796875 17.4453125 C10.17103516 16.54458008 9.54519531 15.64384766 8.90039062 14.71582031 C7.5972385 12.85350477 6.28282033 10.9990368 4.95898438 9.15136719 C4.31767578 8.25321289 3.67636719 7.35505859 3.015625 6.4296875 C2.14599121 5.2228833 2.14599121 5.2228833 1.25878906 3.99169922 C0 2 0 2 0 0 Z "
          fill="bla" transform="translate(416,64)"/>
    <path d="M0 0 C2.55930032 0.92966037 5.13442913 1.32735052 7.828125 1.6640625 C7.828125 2.3240625 7.828125 2.9840625 7.828125 3.6640625 C11.20161911 3.92069255 14.57656509 4.13941092 17.953125 4.3515625 C18.90445313 4.42439453 19.85578125 4.49722656 20.8359375 4.57226562 C26.36087856 4.89839062 30.02249992 4.81118061 34.828125 1.6640625 C34.05241733 9.88656384 28.53646896 14.44847975 22.53515625 19.65234375 C6.05464882 32.10244233 -15.53219306 35.38668826 -35.63085938 35.18554688 C-38.17154267 35.16406531 -40.70940019 35.18551194 -43.25 35.2109375 C-65.33135893 35.24874782 -88.35600723 30.21209439 -104.58984375 14.29296875 C-110.45383293 7.97231493 -110.45383293 7.97231493 -111.171875 3.6640625 C-108.171875 3.6640625 -108.171875 3.6640625 -106.171875 4.6640625 C-95.35741254 5.79056901 -86.36713456 3.35696867 -76.15136719 0.24072266 C-72.88526109 -0.71075028 -69.57935247 -1.33856822 -66.234375 -1.9375 C-63.88969121 -2.35687949 -63.88969121 -2.35687949 -60.546875 -3.3984375 C-42.11344903 -8.12782154 -17.58895032 -7.07848001 0 0 Z "
          fill="bla" transform="translate(168.171875,148.3359375)"/>
    <path d="M0 0 C8.25 0 16.5 0 25 0 C25 50.16 25 100.32 25 152 C16.75 152 8.5 152 0 152 C0 101.84 0 51.68 0 0 Z "
          fill="bla" transform="translate(667,26)"/>
    <path d="M0 0 C3.08859947 1.35335595 5.007964 2.80886249 7.1875 5.375 C7.95126953 6.25285156 7.95126953 6.25285156 8.73046875 7.1484375 C10.07559273 9.11024909 10.57514402 10.676089 11 13 C11.66 13 12.32 13 13 13 C17.2217259 21.69977087 18.47416762 29.35565153 18.4375 39 C18.43492188 39.9907251 18.43234375 40.9814502 18.4296875 42.00219727 C18.22896506 51.84345106 18.22896506 51.84345106 16 56 C13.76525133 57.7177117 11.80926167 59.03823665 9.375 60.375 C8.45847656 60.90673828 8.45847656 60.90673828 7.5234375 61.44921875 C6.02483042 62.31560097 4.51358858 63.16006493 3 64 C1.67797495 60.03392485 2.82624311 57.20782078 3.875 53.3125 C8.05626773 36.57848709 8.40298714 20.28160225 1.0234375 4.328125 C0 2 0 2 0 0 Z "
          fill="bla" transform="translate(77,2)"/>
    <path d="M0 0 C-0.95177352 2.91080511 -1.92012908 5.79565101 -3.03515625 8.6484375 C-9.83354182 26.6913011 -6.21717975 44.75366894 -2 63 C-5.44208447 61.63802413 -8.87290341 60.26666014 -12.25 58.75 C-13.12140625 58.37359375 -13.9928125 57.9971875 -14.890625 57.609375 C-17 56 -17 56 -17.77734375 53.52734375 C-19.51832075 25.94660284 -19.51832075 25.94660284 -14 16 C-13.54109375 15.1234375 -13.0821875 14.246875 -12.609375 13.34375 C-5.15257353 0 -5.15257353 0 0 0 Z "
          fill="bla" transform="translate(182,2)"/>
    <path d="M0 0 C8.18650592 0.79224251 8.18650592 0.79224251 10.85742188 1.47436523 C19.18240483 3.51092165 27.5580307 3.33677139 36.07519531 3.31567383 C38.73023953 3.31252345 41.38415611 3.3359988 44.0390625 3.36132812 C53.0995804 3.39338933 61.35341014 2.93835494 70.16113281 0.64526367 C72.884055 0.02635386 75.22034201 -0.1212023 78 0 C76.17002928 4.63395812 73.37738852 5.76767769 68.9987793 7.75366211 C59.08519951 11.87389534 49.32605282 12.51813944 38.6875 12.4375 C38.00567657 12.43512329 37.32385315 12.43274658 36.62136841 12.43029785 C24.07960645 12.36178477 12.32731539 11.91028413 2 4 C0.625 1.75 0.625 1.75 0 0 Z "
          fill="bla" transform="translate(91,119)"/>
    <path d="M0 0 C3.57358425 4.08753793 5.80312915 8.36980446 8.1875 13.1875 C15.96553158 28.29864363 26.78377659 36.82663753 42 44 C40.35 46.97 38.7 49.94 37 53 C21.74518166 47.46773195 10.78698115 33.24005859 4 19 C1.55237161 12.61582982 -0.25676488 6.88129873 0 0 Z "
          fill="bla" transform="translate(22,36)"/>
    <path d="M0 0 C2.51403898 7.66518178 -2.24022125 16.07807684 -5.5625 22.9375 C-11.48204868 34.63309315 -19.53473372 44.31498052 -31 51 C-32.98 51.495 -32.98 51.495 -35 52 C-37.475 48.04 -37.475 48.04 -40 44 C-39.12859375 43.55011719 -38.2571875 43.10023437 -37.359375 42.63671875 C-22.63272657 34.79277066 -13.5390462 25.8435443 -6 11 C-4.83881845 8.87199776 -3.67266087 6.74669804 -2.5 4.625 C-1.66518102 3.08413731 -0.8312252 1.54280434 0 0 Z "
          fill="bla" transform="translate(236,36)"/>
    <path d="M0 0 C5.96203798 0.44967257 9.87294439 2.28840487 14.9375 5.375 C22.96719369 10.20371977 30.87830905 14.15151648 40.4375 14.125 C41.82775391 14.12886719 41.82775391 14.12886719 43.24609375 14.1328125 C46.39825571 14.04918141 46.39825571 14.04918141 51 13 C51 16.63 51 20.26 51 24 C33.40734228 24.91258743 24.68417421 18.855927 11.25 8.25 C7.66128129 5.42428815 4.03026717 3.14375913 0 1 C0 0.67 0 0.34 0 0 Z "
          fill="bla" transform="translate(0,100)"/>
    <path d="M0 0 C-3.03367368 2.29116614 -6.10456894 4.52566302 -9.1875 6.75 C-12.76168787 9.33558272 -16.25252005 11.98293282 -19.6875 14.75 C-29.07504782 22.09604901 -38.15312843 24.38561246 -50 24 C-50 20.7 -50 17.4 -50 14 C-48.54980469 14.05220703 -48.54980469 14.05220703 -47.0703125 14.10546875 C-31.40114222 14.43126338 -20.34302718 9.48260155 -7.2265625 1.26171875 C-4.62104471 -0.21474133 -2.9481051 -0.25269472 0 0 Z "
          fill="bla" transform="translate(259,100)"/>
    <path d="M0 0 C1.53123685 1.53123685 1.24307107 2.93212824 1.3125 5.0625 C1.25747445 10.81267014 -0.70043121 15.37970188 -4.484375 19.69140625 C-6 21 -6 21 -8.4375 21.5625 C-11 21 -11 21 -13.3125 18.5 C-15.2828403 14.41336827 -16.40108625 11.42403599 -15 7 C-10.97957549 1.64280966 -6.86365434 -1.12059663 0 0 Z "
          fill="bla" transform="translate(99,79)"/>
    <path d="M0 0 C4.87363346 0.02166059 8.82641613 0.25625291 12.5625 3.625 C14.71594001 6.12538313 15.01240515 7.07718759 15.5625 10.5 C14.93259595 14.41940295 13.88856989 18.11143011 11 21 C8.640625 21.3046875 8.640625 21.3046875 6 21 C4.234375 19.3203125 4.234375 19.3203125 2.75 17.125 C2.24984375 16.40570313 1.7496875 15.68640625 1.234375 14.9453125 C-0.7093333 11.88212664 -1.13672162 10.11025904 -1.125 6.5 C-1.12757813 5.7059375 -1.13015625 4.911875 -1.1328125 4.09375 C-1 2 -1 2 0 0 Z "
          fill="bla" transform="translate(161,79)"/>
    <path d="M0 0 C6.06170663 2.54806252 10.91671388 5.60063496 15.875 9.9375 C24.27488724 17.21812671 33.05743602 21.84772525 44.1875 22.5625 C46.09595703 22.68818359 46.09595703 22.68818359 48.04296875 22.81640625 C49.01878906 22.87699219 49.99460938 22.93757813 51 23 C50.98839844 22.15695313 50.97679687 21.31390625 50.96484375 20.4453125 C50.95582031 19.34960938 50.94679687 18.25390625 50.9375 17.125 C50.92589844 16.03445312 50.91429687 14.94390625 50.90234375 13.8203125 C51 11 51 11 52 9 C52.66 9 53.32 9 54 9 C53.67 13.95 53.34 18.9 53 24 C46.4 24 39.8 24 33 24 C32.505 25.485 32.505 25.485 32 27 C22.51944203 24.62986051 16.58151771 17.77010676 10.38818359 10.6706543 C7.97340454 7.94341723 5.72077183 5.68438305 2.6328125 3.7265625 C1.76398437 3.15679687 0.89515625 2.58703125 0 2 C0 1.34 0 0.68 0 0 Z "
          fill="bla" transform="translate(0,101)"/>
    <path d="M0 0 C5.12009776 0.68907619 6.94670829 2.33871442 10.0859375 6.30078125 C10.71757813 7.19152344 11.34921875 8.08226562 12 9 C12.73476562 10.02480469 13.46953125 11.04960937 14.2265625 12.10546875 C21.759204 23.94858298 22.39880491 39.3675228 20 53 C18.46411133 54.8659668 18.46411133 54.8659668 17 56 C17.0314209 54.85168701 17.0314209 54.85168701 17.06347656 53.68017578 C17.14738362 50.16192115 17.19889596 46.64387797 17.25 43.125 C17.28351563 41.92101563 17.31703125 40.71703125 17.3515625 39.4765625 C17.42634593 32.59648692 16.90927312 27.301881 13.86621094 21.08154297 C13 19 13 19 13 15 C12.34 15 11.68 15 11 15 C9.66796875 13.171875 9.66796875 13.171875 8.1875 10.75 C5.83111814 7.06200185 3.54996344 4.61026724 0 2 C0 1.34 0 0.68 0 0 Z "
          fill="bla" transform="translate(77,0)"/>
    <path d="M0 0 C1.32 0 2.64 0 4 0 C4 0.66 4 1.32 4 2 C2.609375 3.296875 2.609375 3.296875 0.75 4.75 C-6.23259459 10.56648724 -11.48975223 19.96795846 -13 29 C-13.238322 33.81550622 -13.18825885 38.61766196 -13.125 43.4375 C-13.11146484 45.39333008 -13.11146484 45.39333008 -13.09765625 47.38867188 C-13.07418397 50.59263832 -13.04134727 53.79622264 -13 57 C-13.66 57 -14.32 57 -15 57 C-15.33 48.75 -15.66 40.5 -16 32 C-16.33 33.32 -16.66 34.64 -17 36 C-17.66 36 -18.32 36 -19 36 C-17.0892934 22.62505379 -9.4770211 9.4770211 0 0 Z "
          fill="bla" transform="translate(178,0)"/>
    <path d="M0 0 C0.99 0.33 1.98 0.66 3 1 C3.09796875 1.67804687 3.1959375 2.35609375 3.296875 3.0546875 C5.67907767 17.88184552 12.64570956 30.34996795 22 42 C21.01 42.495 21.01 42.495 20 43 C20 42.34 20 41.68 20 41 C19.34 41 18.68 41 18 41 C16.29006566 39.3777546 14.62652316 37.70586575 13 36 C12.52433594 35.60554688 12.04867188 35.21109375 11.55859375 34.8046875 C9.16980321 32.0387195 7.9142774 28.76898584 6.5 25.4375 C6.03871704 24.36157593 6.03871704 24.36157593 5.56811523 23.26391602 C2.32279668 15.57326376 -0.55158331 8.45761074 0 0 Z "
          fill="bla" transform="translate(19,34)"/>
    <path d="M0 0 C2.64200372 9.38733468 -3.96165327 19.77954662 -8 28 C-8.66 27.01 -9.32 26.02 -10 25 C-12.31 26.98 -14.62 28.96 -17 31 C-17.66 30.67 -18.32 30.34 -19 30 C-18.56937256 29.55591797 -18.13874512 29.11183594 -17.69506836 28.65429688 C-12.55713245 23.10703337 -9.05417081 17.17667042 -5.5625 10.5 C-5.02173828 9.48679687 -4.48097656 8.47359375 -3.92382812 7.4296875 C-2.6063591 4.95797569 -1.29873717 2.48158997 0 0 Z "
          fill="bla" transform="translate(236,36)"/>
    <path d="M0 0 C5.96203798 0.44967257 9.87294439 2.28840487 14.9375 5.375 C20.17771119 8.52624243 25.21086865 10.99482601 31 13 C30.01 13.66 29.02 14.32 28 15 C28.33 16.65 28.66 18.3 29 20 C25.37364135 18.70441828 22.67247264 17.17290284 19.6875 14.75 C18.52154297 13.81994141 18.52154297 13.81994141 17.33203125 12.87109375 C16.56246094 12.25363281 15.79289063 11.63617188 15 11 C10.18041981 7.23164063 5.38337053 3.91599237 0 1 C0 0.67 0 0.34 0 0 Z "
          fill="bla" transform="translate(0,100)"/>
    <path d="M0 0 C0 0.66 0 1.32 0 2 C-1.19522191 2.80299146 -2.43509715 3.53948061 -3.6875 4.25 C-9.25309478 7.77724001 -13.33422147 12.42242455 -17.65698242 17.32519531 C-19.06991187 18.91503366 -20.53118576 20.46164362 -22 22 C-22.66 22 -23.32 22 -24 22 C-24 20.68 -24 19.36 -24 18 C-24.66 18 -25.32 18 -26 18 C-26 18.66 -26 19.32 -26 20 C-27.32 19.67 -28.64 19.34 -30 19 C-29.2265625 18.50371094 -28.453125 18.00742188 -27.65625 17.49609375 C-22.01270795 13.81521917 -16.79172519 10.07613835 -11.8125 5.54296875 C-8.28911403 2.54353458 -4.74048569 0 0 0 Z "
          fill="bla" transform="translate(260,101)"/>
    <path d="M0 0 C-0.95177352 2.91080511 -1.92012908 5.79565101 -3.03515625 8.6484375 C-7.14911688 19.56685773 -7.05132306 30.45231259 -7 42 C-7.33 42 -7.66 42 -8 42 C-8.85861405 37.62040277 -9.05163296 33.58114763 -8.9375 29.125 C-8.88539687 22.96380532 -9.20184978 17.59630044 -12 12 C-10.89847594 10.56047403 -9.7936696 9.12345929 -8.6875 7.6875 C-8.07261719 6.88699219 -7.45773438 6.08648437 -6.82421875 5.26171875 C-2.58031088 -0 -2.58031088 -0 0 0 Z "
          fill="bla" transform="translate(182,2)"/>
    <path d="M0 0 C1.4540625 0.0309375 1.4540625 0.0309375 2.9375 0.0625 C2.41220631 4.1713041 1.26942009 6.31769841 -1.5 9.375 C-2.11746094 10.07238281 -2.73492187 10.76976563 -3.37109375 11.48828125 C-5.0625 13.0625 -5.0625 13.0625 -7.0625 13.0625 C-7.0625 12.4025 -7.0625 11.7425 -7.0625 11.0625 C-7.7225 11.0625 -8.3825 11.0625 -9.0625 11.0625 C-9.0625 10.4025 -9.0625 9.7425 -9.0625 9.0625 C-8.4025 8.7325 -7.7425 8.4025 -7.0625 8.0625 C-8.3825 8.0625 -9.7025 8.0625 -11.0625 8.0625 C-11.0625 8.7225 -11.0625 9.3825 -11.0625 10.0625 C-12.7125 10.0625 -14.3625 10.0625 -16.0625 10.0625 C-14.02928062 8.53644321 -11.99487612 7.01206438 -9.95703125 5.4921875 C-9.26996094 4.97914062 -8.58289063 4.46609375 -7.875 3.9375 C-7.18019531 3.41929688 -6.48539063 2.90109375 -5.76953125 2.3671875 C-2.74565651 0.05603381 -2.74565651 0.05603381 0 0 Z "
          fill="bla" transform="translate(217.0625,78.9375)"/>
    <path d="M0 0 C3.39981194 3.96772636 5.87833235 8.09951674 8.3125 12.6875 C8.8703418 13.70166992 8.8703418 13.70166992 9.43945312 14.73632812 C10.35897106 16.45721365 11.18755299 18.2260524 12 20 C11.67 20.66 11.34 21.32 11 22 C9.68 21.01 8.36 20.02 7 19 C6.67 19.99 6.34 20.98 6 22 C2.26567414 15.24264845 -0.61731421 7.81931339 0 0 Z "
          fill="bla" transform="translate(22,36)"/>
    <path d="M0 0 C0.66 0 1.32 0 2 0 C2.35748732 5.95017786 1.13928096 10.59054894 -0.8125 16.1875 C-1.20405273 17.37762695 -1.20405273 17.37762695 -1.60351562 18.59179688 C-2.94140713 22.52618893 -4.17644207 25.85423426 -7 29 C-7.28167932 24.39923773 -6.868152 21.3715456 -4.86328125 17.23828125 C-3.21289633 12.95922895 -2.52732109 8.40298405 -1.6484375 3.9140625 C-1 1 -1 1 0 0 Z "
          fill="bla" transform="translate(238,34)"/>
    <path d="M0 0 C-6.19866615 3.30363694 -11.49742498 3.39281826 -18.4375 3.25 C-19.43587891 3.24484375 -20.43425781 3.2396875 -21.46289062 3.234375 C-27.05526562 3.1755466 -32.46781468 2.8176293 -38 2 C-38 1.67 -38 1.34 -38 1 C-36.72153198 0.96241577 -36.72153198 0.96241577 -35.41723633 0.92407227 C-32.23955034 0.82864431 -29.06201106 0.72942876 -25.88452148 0.62768555 C-24.51217224 0.5845116 -23.13977533 0.54282499 -21.76733398 0.50268555 C-19.78877932 0.44455608 -17.8104003 0.3805429 -15.83203125 0.31640625 C-14.64327393 0.27974854 -13.4545166 0.24309082 -12.22973633 0.20532227 C-1.44153123 -0.48051041 -1.44153123 -0.48051041 0 0 Z "
          fill="bla" transform="translate(154,130)"/>
    <path d="M0 0 C1.70884005 1.62339805 3.37446717 3.29319053 5 5 C5 5.66 5 6.32 5 7 C5.66 7 6.32 7 7 7 C7 7.66 7 8.32 7 9 C7.5775 9.0825 8.155 9.165 8.75 9.25 C11.6159304 10.20531013 12.9990764 11.78469173 15 14 C13.02 14 11.04 14 9 14 C8.67 14.99 8.34 15.98 8 17 C6.46636928 14.73692309 4.94815741 12.46583175 3.4375 10.1875 C2.78104492 9.22360352 2.78104492 9.22360352 2.11132812 8.24023438 C0.99465846 6.5432482 -0.01064506 4.77422942 -1 3 C-0.67 2.01 -0.34 1.02 0 0 Z "
          fill="bla" transform="translate(32,68)"/>
    <path d="M0 0 C-4.07505842 3.07551579 -8.21105747 6.06516256 -12.34375 9.0625 C-14.57631057 10.69095595 -16.79436184 12.33536742 -19 14 C-19.66 12.35 -20.32 10.7 -21 9 C-18.44462079 7.48659093 -15.88187787 5.98929997 -13.3125 4.5 C-12.59126953 4.07074219 -11.87003906 3.64148438 -11.12695312 3.19921875 C-4.4644465 -0.63400424 -4.4644465 -0.63400424 0 0 Z "
          fill="bla" transform="translate(259,100)"/>
    <path d="M0 0 C1.85683215 3.71366429 2.51111356 6.2158891 3.125 10.25 C3.29257813 11.32765625 3.46015625 12.4053125 3.6328125 13.515625 C3.75398438 14.33546875 3.87515625 15.1553125 4 16 C3.34 16.33 2.68 16.66 2 17 C2 19.31 2 21.62 2 24 C1.34 24.33 0.68 24.66 0 25 C0 16.75 0 8.5 0 0 Z "
          fill="bla" transform="translate(97,27)"/>
    <path d="M0 0 C6.52163117 2.96557071 11.75795211 6.0998248 17 11 C16.01 11.33 15.02 11.66 14 12 C10.2842579 10.14212895 7.20063632 7.62616314 4 5 C3.236875 4.46375 2.47375 3.9275 1.6875 3.375 C1.130625 2.92125 0.57375 2.4675 0 2 C0 1.34 0 0.68 0 0 Z "
          fill="bla" transform="translate(0,101)"/>
    <path d="M0 0 C0.33 0.99 0.66 1.98 1 3 C0.34 3 -0.32 3 -1 3 C-1.33 3.99 -1.66 4.98 -2 6 C-5.77545388 4.90931332 -8.47043472 4.0916909 -11 1 C-6.92630576 -1.03684712 -4.41062136 -1.0257259 0 0 Z "
          fill="bla" transform="translate(34,122)"/>
    <path d="M0 0 C0.97839844 0.15597656 1.95679688 0.31195313 2.96484375 0.47265625 C10.17419166 1.56339316 16.74788178 2.27230144 24 1 C24 1.66 24 2.32 24 3 C21.34081834 3.88639389 19.51935359 4.17989025 16.76953125 4.31640625 C15.96708984 4.35830078 15.16464844 4.40019531 14.33789062 4.44335938 C13.50451172 4.48267578 12.67113281 4.52199219 11.8125 4.5625 C10.96751953 4.60568359 10.12253906 4.64886719 9.25195312 4.69335938 C7.16815567 4.79931518 5.08409897 4.9001502 3 5 C2.01 3.35 1.02 1.7 0 0 Z "
          fill="bla" transform="translate(575,155)"/>
    <path d="M0 0 C6.81520452 0.29631324 11.38350782 3.30464197 17 7 C16.34 7.66 15.68 8.32 15 9 C11.86991344 8.62099161 9.56913454 7.29829364 6.9375 5.625 C6.26589844 5.20476562 5.59429687 4.78453125 4.90234375 4.3515625 C3.05698219 3.04048427 1.54631339 1.64747408 0 0 Z "
          fill="bla" transform="translate(0,100)"/>
    <path d="M0 0 C0.33 0.99 0.66 1.98 1 3 C-0.32 3.33 -1.64 3.66 -3 4 C-3 4.66 -3 5.32 -3 6 C-2.34 6 -1.68 6 -1 6 C-0.67 6.99 -0.34 7.98 0 9 C-1.375 10.5 -1.375 10.5 -3 12 C-3.66 12 -4.32 12 -5 12 C-5 10.68 -5 9.36 -5 8 C-6.32 7.67 -7.64 7.34 -9 7 C-8.67 6.34 -8.34 5.68 -8 5 C-7.01 5 -6.02 5 -5 5 C-5 4.34 -5 3.68 -5 3 C-4.360625 2.87625 -3.72125 2.7525 -3.0625 2.625 C-2.0415625 2.315625 -2.0415625 2.315625 -1 2 C-0.67 1.34 -0.34 0.68 0 0 Z "
          fill="bla" transform="translate(211,84)"/>
    <path d="M0 0 C0.99 0.99 1.98 1.98 3 3 C3 4.32 3 5.64 3 7 C3.66 7 4.32 7 5 7 C5.125 9.375 5.125 9.375 5 12 C4.34 12.66 3.68 13.32 3 14 C2.01 14 1.02 14 0 14 C0 9.38 0 4.76 0 0 Z "
          fill="bla" transform="translate(158,40)"/>
    <path d="M0 0 C2.36473506 4.72947012 2.3330085 7.89845855 2.3125 13.0625 C2.32861328 13.87783203 2.34472656 14.69316406 2.36132812 15.53320312 C2.36197266 16.31759766 2.36261719 17.10199219 2.36328125 17.91015625 C2.36775269 18.97955444 2.36775269 18.97955444 2.37231445 20.07055664 C2 22 2 22 -1 25 C-0.67 16.75 -0.34 8.5 0 0 Z "
          fill="bla" transform="translate(95,31)"/>
    <path d="M0 0 C1.2065625 0.0309375 1.2065625 0.0309375 2.4375 0.0625 C3.4375 2.0625 3.4375 2.0625 2.4375 6.0625 C-0.5325 6.0625 -3.5025 6.0625 -6.5625 6.0625 C-3.03077411 0.07392132 -3.03077411 0.07392132 0 0 Z "
          fill="bla" transform="translate(47.5625,125.9375)"/>
    <path d="M0 0 C1.35544922 -0.01836914 1.35544922 -0.01836914 2.73828125 -0.03710938 C8.71234585 -0.05000304 13.96370032 0.69368998 19.75 2.1875 C16.75 4.1875 16.75 4.1875 12.75 4.1875 C12.75 3.5275 12.75 2.8675 12.75 2.1875 C3.51 2.1875 -5.73 2.1875 -15.25 2.1875 C-15.25 1.8575 -15.25 1.5275 -15.25 1.1875 C-10.11904783 0.04697238 -5.23563599 0.00367155 0 0 Z "
          fill="bla" transform="translate(588.25,62.8125)"/>
    <path d="M0 0 C0.99 0 1.98 0 3 0 C2.96970703 0.56396484 2.93941406 1.12792969 2.90820312 1.70898438 C2.76995731 4.30587881 2.63495995 6.9029328 2.5 9.5 C2.45230469 10.386875 2.40460938 11.27375 2.35546875 12.1875 C2.08372324 17.46712713 1.95059296 22.71344674 2 28 C1.67 28 1.34 28 1 28 C-0.25406138 22.21354356 -0.11186913 16.51131884 -0.0625 10.625 C-0.05798828 9.60277344 -0.05347656 8.58054687 -0.04882812 7.52734375 C-0.037103 5.01816806 -0.02069176 2.5091151 0 0 Z "
          fill="bla" transform="translate(173,16)"/>
    <path d="M0 0 C-3.20945602 2.8503026 -5.49988548 3.43451699 -9.75 3.6875 C-10.73484375 3.75324219 -11.7196875 3.81898438 -12.734375 3.88671875 C-13.48203125 3.92410156 -14.2296875 3.96148437 -15 4 C-15 3.34 -15 2.68 -15 2 C-10.06970164 -0.8444029 -5.49461223 -1.45445618 0 0 Z "
          fill="bla" transform="translate(231,126)"/>
    <path d="M0 0 C0 0.66 0 1.32 0 2 C-1.390625 3.3671875 -1.390625 3.3671875 -3.25 4.875 C-5.97805828 7.1327034 -8.54236923 9.444064 -11 12 C-10.71813452 7.34921955 -8.52396815 4.79882021 -5.66796875 1.35546875 C-4 0 -4 0 0 0 Z "
          fill="bla" transform="translate(182,0)"/>
    <path d="M0 0 C1.65 0 3.3 0 5 0 C5.33 0.99 5.66 1.98 6 3 C6.66 3 7.32 3 8 3 C8 3.66 8 4.32 8 5 C9.32 5.33 10.64 5.66 12 6 C9.375 6.8125 9.375 6.8125 6 7 C3.52333222 5.60547986 2.02440584 4.07260598 0 2 C0 1.34 0 0.68 0 0 Z "
          fill="bla" transform="translate(14,108)"/>
    <path d="M0 0 C2.86392794 3.52830761 5.58784278 7.12984917 8.25 10.8125 C8.95640625 11.78832031 9.6628125 12.76414062 10.390625 13.76953125 C10.92171875 14.50558594 11.4528125 15.24164063 12 16 C11.34 16.33 10.68 16.66 10 17 C10 16.34 10 15.68 10 15 C9.34 15 8.68 15 8 15 C6.31288577 13.3540349 4.6454378 11.68762851 3 10 C2.67 10 2.34 10 2 10 C2 8.02 2 6.04 2 4 C1.34 4 0.68 4 0 4 C0 2.68 0 1.36 0 0 Z "
          fill="bla" transform="translate(29,60)"/>
    <path d="M0 0 C0 1.32 0 2.64 0 4 C2.64 3.67 5.28 3.34 8 3 C4.22395846 5.51736102 1.68994863 6.2628809 -2.8125 5.5625 C-3.534375 5.376875 -4.25625 5.19125 -5 5 C-5.33 3.68 -5.66 2.36 -6 1 C-4 0 -4 0 0 0 Z "
          fill="bla" transform="translate(216,126)"/>
    <path d="M0 0 C0.33 0 0.66 0 1 0 C0.5464821 7.02952752 -1.12059087 12.5849443 -4 19 C-4.33 19 -4.66 19 -5 19 C-5 16.36 -5 13.72 -5 11 C-4.34 11 -3.68 11 -3 11 C-3 10.01 -3 9.02 -3 8 C-2.34 8 -1.68 8 -1 8 C-0.67 5.36 -0.34 2.72 0 0 Z "
          fill="bla" transform="translate(208,134)"/>
    <path d="M0 0 C0.33 0 0.66 0 1 0 C1.54132251 4.78459247 -0.02095006 6.9919983 -2.875 10.75 C-3.59429687 11.71421875 -4.31359375 12.6784375 -5.0546875 13.671875 C-7 16 -7 16 -9 17 C-7.51463956 12.97683781 -5.60123107 9.38707358 -3.4375 5.6875 C-2.81746094 4.61886719 -2.19742187 3.55023438 -1.55859375 2.44921875 C-1.04425781 1.64097656 -0.52992188 0.83273438 0 0 Z "
          fill="bla" transform="translate(453,118)"/>
    <path d="M0 0 C1.31534494 3.65857532 0.65468309 6.08026481 -0.4375 9.75 C-0.72496094 10.73484375 -1.01242188 11.7196875 -1.30859375 12.734375 C-1.53675781 13.48203125 -1.76492187 14.2296875 -2 15 C-3.5390625 13.18359375 -3.5390625 13.18359375 -5 11 C-4.11594545 6.84494363 -2.29480407 3.54651538 0 0 Z "
          fill="bla" transform="translate(236,36)"/>
    <path d="M0 0 C3.24898067 4.09654084 4.13007859 6.98394824 4.0625 12.1875 C4.05347656 13.08855469 4.04445313 13.98960938 4.03515625 14.91796875 C4.02355469 15.60503906 4.01195313 16.29210937 4 17 C1.0539199 11.2192462 -0.26261902 6.5654756 0 0 Z "
          fill="bla" transform="translate(93,18)"/>
    <path d="M0 0 C3.36179774 1.44077046 5.59156268 3.24750021 8 6 C8 6.66 8 7.32 8 8 C6 9.625 6 9.625 4 11 C3.32880451 9.5437455 2.66318193 8.08492133 2 6.625 C1.62875 5.81289062 1.2575 5.00078125 0.875 4.1640625 C0 2 0 2 0 0 Z "
          fill="bla" transform="translate(77,2)"/>
    <path d="M0 0 C0.33 0 0.66 0 1 0 C1.28571429 7.42857143 1.28571429 7.42857143 -1 11 C-1.66 11 -2.32 11 -3 11 C-3 11.66 -3 12.32 -3 13 C-3.66 13 -4.32 13 -5 13 C-3.78184562 8.31479085 -2.30440013 4.29456388 0 0 Z "
          fill="bla" transform="translate(232,46)"/>
    <path d="M0 0 C0 0.66 0 1.32 0 2 C-3.8415976 4.56780471 -7.8139175 4.22688882 -12.25 4.125 C-12.99507812 4.11597656 -13.74015625 4.10695313 -14.5078125 4.09765625 C-16.33868059 4.07418358 -18.16938238 4.03831525 -20 4 C-20 3.67 -20 3.34 -20 3 C-19.28714844 2.95101562 -18.57429687 2.90203125 -17.83984375 2.8515625 C-11.95754005 2.39237863 -5.70643577 0 0 0 Z "
          fill="bla" transform="translate(229,121)"/>
    <path d="M0 0 C0 3.96679333 -1.279315 5.20374041 -4 8 C-5.32 8 -6.64 8 -8 8 C-8 8.66 -8 9.32 -8 10 C-9.65 10 -11.3 10 -13 10 C-10.96678062 8.47394321 -8.93237612 6.94956438 -6.89453125 5.4296875 C-6.20746094 4.91664062 -5.52039063 4.40359375 -4.8125 3.875 C-4.11769531 3.35679688 -3.42289063 2.83859375 -2.70703125 2.3046875 C-1.06593783 1.11007661 -1.06593783 1.11007661 0 0 Z "
          fill="bla" transform="translate(214,79)"/>
    <path d="M0 0 C-2.07553648 0.5534764 -3.84365964 1 -6 1 C-6.33 1.99 -6.66 2.98 -7 4 C-10 0.25 -10 0.25 -10 -2 C-5.82412255 -3.39195915 -3.86525224 -1.82323219 0 0 Z "
          fill="bla" transform="translate(47,81)"/>
    <path d="M0 0 C0.33 0.99 0.66 1.98 1 3 C0.01 3.33 -0.98 3.66 -2 4 C-2 4.66 -2 5.32 -2 6 C-1.34 6.33 -0.68 6.66 0 7 C-0.66 8.32 -1.32 9.64 -2 11 C-2 10.01 -2 9.02 -2 8 C-3.32 7.67 -4.64 7.34 -6 7 C-4.02 4.69 -2.04 2.38 0 0 Z "
          fill="bla" transform="translate(222,71)"/>
    <path d="M0 0 C0.66 0 1.32 0 2 0 C2.36923077 6.52307692 2.36923077 6.52307692 0.5 8.9375 C0.005 9.288125 -0.49 9.63875 -1 10 C-2.46726798 6.18510326 -1.43336419 3.70988378 0 0 Z "
          fill="bla" transform="translate(238,34)"/>
    <path d="M0 0 C1.70840281 1.63412443 2.93453047 2.86906094 4 5 C4.04022391 7.3329866 4.04320247 9.66706666 4 12 C1.37613513 8.93882432 1 8.26826873 1 4 C0.34 4 -0.32 4 -1 4 C-1.33 3.01 -1.66 2.02 -2 1 C-1.34 0.67 -0.68 0.34 0 0 Z "
          fill="bla" transform="translate(89,11)"/>
    <path d="M0 0 C0.66 0 1.32 0 2 0 C2 1.65 2 3.3 2 5 C0.1875 5.625 0.1875 5.625 -2 6 C-2.99 5.34 -3.98 4.68 -5 4 C-5 3.34 -5 2.68 -5 2 C-3.35 2 -1.7 2 0 2 C0 1.34 0 0.68 0 0 Z "
          fill="bla" transform="translate(234,119)"/>
    <path d="M0 0 C0.66 1.32 1.32 2.64 2 4 C2.99 5.485 2.99 5.485 4 7 C2.02 7.99 0.04 8.98 -2 10 C-1.34 6.7 -0.68 3.4 0 0 Z "
          fill="bla" transform="translate(81,56)"/>
    <path d="M0 0 C1.32 0.66 2.64 1.32 4 2 C4 3.65 4 5.3 4 7 C3.01 7.495 3.01 7.495 2 8 C0.4375 5.6875 0.4375 5.6875 -1 3 C-0.67 2.01 -0.34 1.02 0 0 Z "
          fill="bla" transform="translate(58,151)"/>
    <path d="M0 0 C2.97 0 5.94 0 9 0 C8.67 0.66 8.34 1.32 8 2 C5.93359375 2.4140625 5.93359375 2.4140625 3.4375 2.625 C2.61121094 2.69976562 1.78492188 2.77453125 0.93359375 2.8515625 C-0.02353516 2.92503906 -0.02353516 2.92503906 -1 3 C-0.67 2.01 -0.34 1.02 0 0 Z "
          fill="bla" transform="translate(33,125)"/>
    <path d="M0 0 C1.07156762 4.28627048 1.0365854 4.66075382 -0.9375 8.25 C-1.31777344 8.95640625 -1.69804687 9.6628125 -2.08984375 10.390625 C-2.39019531 10.92171875 -2.69054687 11.4528125 -3 12 C-3.99 11.67 -4.98 11.34 -6 11 C-4.02 7.37 -2.04 3.74 0 0 Z "
          fill="bla" transform="translate(230,47)"/>
    <path d="M0 0 C2.91517292 1.07401108 4.77810176 1.77810176 7 4 C6.34 4.66 5.68 5.32 5 6 C2.875 5.625 2.875 5.625 1 5 C1.33 4.01 1.66 3.02 2 2 C1.34 2 0.68 2 0 2 C0 1.34 0 0.68 0 0 Z "
          fill="bla" transform="translate(22,117)"/>
    <path d="M0 0 C2.18975773 3.28463659 2.99806563 6.20696275 4 10 C2.35 9.01 0.7 8.02 -1 7 C-0.67 4.69 -0.34 2.38 0 0 Z "
          fill="bla" transform="translate(397,139)"/>
    <path d="M0 0 C-2.85306797 2.32472205 -5.54074837 3.7508258 -9 5 C-9 4.01 -9 3.02 -9 2 C-5.86501708 0.14223235 -3.62528568 -0.20140476 0 0 Z "
          fill="bla" transform="translate(259,100)"/>
    <path d="M0 0 C0.33 0.99 0.66 1.98 1 3 C2.98 2.67 4.96 2.34 7 2 C7.33 2.66 7.66 3.32 8 4 C1.9453125 4.9765625 1.9453125 4.9765625 0 5 C-0.66 4.34 -1.32 3.68 -2 3 C-1.34 2.01 -0.68 1.02 0 0 Z "
          fill="bla" transform="translate(90,75)"/>
    <path d="M0 0 C-2.67478244 1.6627026 -4.9995144 2.99983813 -8 4 C-8.99 3.34 -9.98 2.68 -11 2 C-3.57142857 -1.57142857 -3.57142857 -1.57142857 0 0 Z "
          fill="bla" transform="translate(573,66)"/>
    <path d="M0 0 C5.94 0.99 5.94 0.99 12 2 C12 2.33 12 2.66 12 3 C9.03 3.66 6.06 4.32 3 5 C2.01 3.35 1.02 1.7 0 0 Z "
          fill="bla" transform="translate(575,155)"/>
    <path d="M0 0 C2.31 0 4.62 0 7 0 C5.515 1.98 5.515 1.98 4 4 C2.68 3.67 1.36 3.34 0 3 C0 2.01 0 1.02 0 0 Z "
          fill="bla" transform="translate(495,65)"/>
    <path d="M0 0 C0.33 0 0.66 0 1 0 C0.38461538 7.50769231 0.38461538 7.50769231 -1.5625 10 C-2.036875 10.33 -2.51125 10.66 -3 11 C-2.25 3.375 -2.25 3.375 0 0 Z "
          fill="bla" transform="translate(170,9)"/>
    <path d="M0 0 C2.625 0.375 2.625 0.375 5 1 C4.67 2.32 4.34 3.64 4 5 C3.01 5 2.02 5 1 5 C1.66 4.01 2.32 3.02 3 2 C1.35 2 -0.3 2 -2 2 C-1.34 1.34 -0.68 0.68 0 0 Z "
          fill="bla" transform="translate(166,117)"/>
    <path d="M0 0 C1.33332095 2.6666419 0.67102033 4.16680303 0 7 C-1.65 6.67 -3.3 6.34 -5 6 C-4.67 5.34 -4.34 4.68 -4 4 C-3.34 4.33 -2.68 4.66 -2 5 C-1.34 3.35 -0.68 1.7 0 0 Z "
          fill="bla" transform="translate(61,84)"/>
    <path d="M0 0 C0.93065133 2.60582371 1.14917407 3.64198224 0.0625 6.25 C-0.4634375 7.11625 -0.4634375 7.11625 -1 8 C-2.32 7.67 -3.64 7.34 -5 7 C-4.67 6.34 -4.34 5.68 -4 5 C-3.34 5 -2.68 5 -2 5 C-2 4.34 -2 3.68 -2 3 C-1.34 3 -0.68 3 0 3 C0 2.01 0 1.02 0 0 Z "
          fill="bla" transform="translate(229,63)"/>
    <path d="M0 0 C2.95183101 2.95183101 3.08663988 5.95511947 4 10 C3.34 9.67 2.68 9.34 2 9 C2 8.01 2 7.02 2 6 C1.01 6 0.02 6 -1 6 C-0.67 4.02 -0.34 2.04 0 0 Z "
          fill="bla" transform="translate(389,118)"/>
    <path d="M0 0 C0 0.66 0 1.32 0 2 C-3.22791555 4.1519437 -4.28400809 4.20086443 -8 4 C-5.29881977 1.17603885 -4.05589853 0 0 0 Z "
          fill="bla" transform="translate(260,101)"/>
    <path d="M0 0 C4.95 0.99 4.95 0.99 10 2 C7 4 7 4 3 4 C3 3.34 3 2.68 3 2 C2.01 2 1.02 2 0 2 C0 1.34 0 0.68 0 0 Z "
          fill="bla" transform="translate(598,63)"/>
    <path d="M0 0 C2.475 0.495 2.475 0.495 5 1 C5 1.66 5 2.32 5 3 C6.32 3.33 7.64 3.66 9 4 C6.3333581 5.33332095 4.83319697 4.67102033 2 4 C2 3.34 2 2.68 2 2 C1.34 2 0.68 2 0 2 C0 1.34 0 0.68 0 0 Z "
          fill="bla" transform="translate(162,58)"/>
    <path d="M0 0 C-0.66 1.98 -1.32 3.96 -2 6 C-5 6 -5 6 -7 5 C-2.25 -0 -2.25 -0 0 0 Z " fill="bla"
          transform="translate(182,2)"/>
    <path d="M0 0 C0.33 0.66 0.66 1.32 1 2 C-0.70625501 4.78388975 -1.47626739 5.85384206 -4.6875 6.75 C-5.8321875 6.87375 -5.8321875 6.87375 -7 7 C-4.66666667 4.66666667 -2.33333333 2.33333333 0 0 Z "
          fill="bla" transform="translate(612,147)"/>
    <path d="M0 0 C0.99 0 1.98 0 3 0 C2.34 3.96 1.68 7.92 1 12 C0.67 12 0.34 12 0 12 C0 8.04 0 4.08 0 0 Z " fill="bla"
          transform="translate(53,112)"/>
    <path d="M0 0 C0.33 0 0.66 0 1 0 C1.49230769 6.4 1.49230769 6.4 -1 9.4375 C-1.99 10.2109375 -1.99 10.2109375 -3 11 C-2.32829194 7.1936543 -1.27253436 3.64793184 0 0 Z "
          fill="bla" transform="translate(305,102)"/>
    <path d="M0 0 C0.33 0.99 0.66 1.98 1 3 C-0.96466413 4.06775224 -2.96855359 5.06553465 -5 6 C-5.66 5.67 -6.32 5.34 -7 5 C-4.69 3.35 -2.38 1.7 0 0 Z "
          fill="bla" transform="translate(214,69)"/>
    <path d="M0 0 C1.64826111 2.96687001 2.44271087 5.65626525 3 9 C0.525 8.01 0.525 8.01 -2 7 C-1.34 6.67 -0.68 6.34 0 6 C0 4.02 0 2.04 0 0 Z "
          fill="bla" transform="translate(177,56)"/>
    <path d="M0 0 C0.33 0 0.66 0 1 0 C1.33 2.97 1.66 5.94 2 9 C1.01 9.33 0.02 9.66 -1 10 C-0.67 6.7 -0.34 3.4 0 0 Z "
          fill="bla" transform="translate(99,34)"/>
    <path d="M0 0 C0.66 0 1.32 0 2 0 C2 0.99 2 1.98 2 3 C1.34 3 0.68 3 0 3 C-0.28875 3.639375 -0.5775 4.27875 -0.875 4.9375 C-2 7 -2 7 -4 8 C-2.87548273 5.0280615 -1.77706209 2.66559313 0 0 Z "
          fill="bla" transform="translate(174,8)"/>
</svg>
