<svg xmlns="http://www.w3.org/2000/svg" fill="none" viewBox="33 6 145.6 20">

<path fill-rule="evenodd" clip-rule="evenodd"
      d="M48.4678 14.8317L52.612 7.39334L59.8022 8.672V24.2194L54.5557 26V13.4535L49.0265 23.3734H46.1509L42.4144 14.1177L38.6241 23.8321H33L39.3036 7.35872L44.3905 6L48.4678 14.8317ZM93.0939 12.0512C94.481 10.7141 96.1896 10.0585 98.2218 10.0585C100.278 10.0585 101.986 10.7141 103.373 12.0512C104.761 13.3623 105.455 15.065 105.455 17.1615C105.455 19.232 104.761 20.9348 103.373 22.2459C102.01 23.5289 100.301 24.1844 98.2455 24.1844C96.1896 24.1844 94.481 23.5289 93.0939 22.2459C91.7305 20.9348 91.038 19.232 91.038 17.1615C91.038 15.065 91.7305 13.3623 93.0939 12.0512ZM98.2455 20.2273C99.7664 20.2273 100.981 19.0157 100.981 17.1593C100.981 15.2792 99.7643 14.0178 98.2455 14.0178C96.7246 14.0178 95.5101 15.2792 95.5101 17.1593C95.5101 19.0157 96.7268 20.2273 98.2455 20.2273ZM85.1078 10.0609C84.9913 10.0609 84.877 10.0653 84.7648 10.0717C83.259 10.1237 81.3541 10.8377 80.5365 11.3547L80.2603 10.3422H76.1766V23.858H81.1189V15.1496C81.8373 14.6239 83.0087 14.4292 83.5891 14.4292C84.2233 14.4292 84.5275 14.9268 84.5275 15.7576V23.8558H89.5259V14.7126C89.5259 11.7507 88.1992 10.0609 85.1078 10.0609ZM62.5344 10.7403V14.546C62.5365 14.546 62.5387 14.546 62.5409 14.5438C62.9809 14.4075 64.9743 13.8407 67.4638 13.8407H67.4595C69.2242 13.8169 70.0655 14.3361 70.0655 15.7186H67.6968C64.3185 15.7186 61.3112 16.5386 61.3112 19.9549C61.3112 22.0406 62.9594 24.202 66.081 24.202C68.9308 24.202 70.264 23.1938 70.264 23.1938L70.5487 23.8515H74.3305V15.6429C74.3284 8.59855 67.0344 9.92401 63.1814 10.6242L63.1812 10.6242C62.9528 10.6657 62.7364 10.705 62.5344 10.7403ZM70.0935 18.726C70.0935 20.2838 69.1098 20.9761 67.2502 20.9761C66.0119 20.9761 65.2785 20.6234 65.2785 19.7212C65.2785 18.819 66.1112 18.5572 67.85 18.5572L70.0935 18.5767V18.726ZM121.609 14.8317L125.755 7.39334L132.946 8.672V24.2194L127.697 26V13.4535L122.17 23.3734H119.294L115.556 14.1177L111.765 23.8321H106.143L112.447 7.35872L117.534 6L121.609 14.8317ZM166.237 12.0511C167.624 10.714 169.333 10.0585 171.365 10.0585C173.421 10.0585 175.129 10.714 176.517 12.0511C177.904 13.3622 178.598 15.0649 178.598 17.1614C178.598 19.232 177.904 20.9347 176.517 22.2458C175.153 23.5288 173.445 24.1844 171.389 24.1844C169.333 24.1844 167.624 23.5288 166.237 22.2458C164.874 20.9347 164.181 19.232 164.181 17.1614C164.181 15.0649 164.876 13.3622 166.237 12.0511ZM171.391 20.2272C172.912 20.2272 174.126 19.0156 174.126 17.1593C174.126 15.2791 172.91 14.0178 171.391 14.0178C169.87 14.0178 168.655 15.2791 168.655 17.1593C168.653 19.0156 169.87 20.2272 171.391 20.2272ZM158.247 10.061C158.13 10.061 158.016 10.0653 157.904 10.0718C156.398 10.1237 154.493 10.8377 153.676 11.3548L153.4 10.3423H149.316V23.8581H154.258V15.1497C154.977 14.624 156.148 14.4292 156.728 14.4292C157.362 14.4292 157.667 14.9269 157.667 15.7577V23.8559H162.665V14.7127C162.665 11.7507 161.341 10.061 158.247 10.061ZM135.678 10.7402V14.5459C135.68 14.5459 135.682 14.5459 135.684 14.5438C136.124 14.4075 138.117 13.8406 140.607 13.8406H140.603C142.367 13.8168 143.209 14.3361 143.209 15.7186H140.84C137.462 15.7186 134.454 16.5386 134.454 19.9548C134.454 22.0405 136.103 24.2019 139.224 24.2019C142.074 24.2019 143.407 23.1937 143.407 23.1937L143.692 23.8514H147.474V15.6428C147.472 8.59849 140.178 9.92395 136.325 10.6241C136.096 10.6656 135.88 10.705 135.678 10.7402ZM143.235 18.7259C143.235 20.2837 142.251 20.976 140.391 20.976C139.153 20.976 138.42 20.6234 138.42 19.7212C138.42 18.819 139.252 18.5572 140.991 18.5572L143.235 18.5766V18.7259Z"
      fill="currentColor"/>
<defs>
<linearGradient id="paint0_linear_11172_74849" x1="5.35798" y1="23.3063" x2="22.5084" y2="9.08003"
                gradientUnits="userSpaceOnUse">
    <stop stop-color="#0397A7"/>
    <stop offset="1" stop-color="#00ECCD"/>
</linearGradient>
</defs>
</svg>
