<svg xmlns="http://www.w3.org/2000/svg" version="1.0" preserveAspectRatio="xMidYMid meet"
     viewBox="45.48 45.19 568.52 175.38">

    <g transform="translate(0.000000,266.000000) scale(0.100000,-0.100000)" fill="currentColor" stroke="none">
        <path d="M1215 2199 c-273 -36 -531 -214 -659 -459 -253 -481 -12 -1075 506 -1244 340 -111 726 5 949 285 431 540 106 1334 -581 1419 -95 11 -116 11 -215 -1z m397 -475 c106 -36 178 -138 178 -253 0 -80 -23 -134 -77 -188 -67 -67 -100 -77 -255 -81 l-138 -4 0 -110 c0 -94 -3 -116 -21 -148 -60 -106 -222 -104 -273 4 -14 30 -16 84 -16 415 l0 381 278 0 c226 0 287 -3 324 -16z"/>
        <path d="M1090 1325 l0 -336 25 -24 c29 -30 64 -32 96 -6 24 19 24 19 27 285 l3 267 157 -3 c155 -3 157 -3 160 -26 7 -45 -12 -52 -130 -52 l-109 0 3 -72 3 -73 90 -3 c159 -6 237 26 276 113 35 75 14 164 -50 218 -49 41 -90 47 -328 47 l-223 0 0 -335z"/>
        <path d="M2647 1753 c-4 -3 -7 -199 -7 -434 0 -471 -5 -439 63 -439 55 0 56 3 59 175 l3 160 180 5 c172 5 182 6 225 32 55 32 81 60 110 115 55 106 29 236 -62 317 -75 68 -112 76 -358 76 -114 0 -210 -3 -213 -7z m427 -103 c55 -12 87 -39 115 -93 31 -62 23 -122 -22 -174 -49 -56 -76 -63 -252 -63 l-155 0 0 163 c0 90 3 167 7 170 10 10 262 8 307 -3z"/>
        <path d="M4797 1754 c-4 -4 -7 -197 -7 -429 0 -314 3 -424 12 -433 13 -13 76 -16 95 -4 9 6 13 55 15 167 l3 160 163 3 162 2 0 50 0 50 -165 0 -165 0 2 168 3 167 198 3 198 2 -3 48 -3 47 -251 3 c-138 1 -253 -1 -257 -4z"/>
        <path d="M5454 1747 c-3 -8 -4 -34 -2 -58 l3 -44 55 0 55 0 0 55 0 55 -53 3 c-38 2 -54 -1 -58 -11z"/>
        <path d="M5827 1754 c-4 -4 -7 -49 -7 -100 l0 -93 -47 -3 -48 -3 0 -50 0 -50 48 -3 47 -3 0 -193 c0 -118 4 -206 11 -227 29 -86 92 -132 196 -144 92 -10 105 -4 101 53 l-3 47 -73 5 c-113 8 -112 6 -112 256 l0 204 84 0 c111 0 116 2 116 55 0 52 -5 55 -115 55 l-84 0 -3 98 -3 97 -50 3 c-28 2 -54 0 -58 -4z"/>
        <path d="M3597 1550 c-80 -21 -129 -61 -152 -127 -17 -48 -6 -63 45 -63 34 0 41 4 64 44 14 24 37 48 53 54 82 32 191 18 226 -29 21 -29 35 -113 21 -122 -5 -3 -76 -15 -158 -27 -224 -32 -276 -65 -284 -181 -6 -75 1 -101 40 -144 41 -48 89 -67 168 -69 90 -1 131 9 188 49 l50 34 7 -45 6 -44 44 0 c30 0 45 5 49 16 10 25 7 424 -4 488 -19 115 -90 166 -240 172 -47 2 -102 -1 -123 -6z m263 -377 c0 -62 -32 -125 -79 -156 -104 -69 -222 -55 -257 30 -14 31 -13 38 3 71 11 23 32 44 53 54 37 18 177 45 243 47 l37 1 0 -47z"/>
        <path d="M5462 1548 c-17 -17 -18 -638 0 -656 14 -14 76 -16 96 -4 9 7 12 81 10 338 l-3 329 -45 3 c-26 2 -50 -2 -58 -10z"/>
        <path d="M4097 1543 c-3 -5 46 -154 109 -332 63 -178 114 -332 114 -342 0 -10 -13 -33 -28 -50 -25 -28 -35 -32 -101 -37 l-72 -5 3 -46 3 -46 50 -3 c98 -6 187 34 221 100 15 29 274 749 274 762 0 3 -24 6 -53 6 l-52 0 -86 -257 c-47 -141 -90 -258 -96 -260 -7 -3 -44 97 -95 254 l-84 258 -51 3 c-28 2 -54 -1 -56 -5z"/>
    </g>
</svg>
