<svg xmlns="http://www.w3.org/2000/svg" version="1.0" preserveAspectRatio="xMidYMid meet" viewBox="0 0 200 200">

    <g transform="translate(0.000000,200.000000) scale(0.100000,-0.100000)" fill="#000000" stroke="none">
        <path d="M0 1000 l0 -1000 1000 0 1000 0 0 1000 0 1000 -1000 0 -1000 0 0 -1000z m1111 550 c87 -16 196 -75 261 -141 140 -143 186 -376 106 -537 l-23 -47 -84 -3 c-92 -3 -115 6 -88 36 9 9 28 44 43 76 24 52 26 67 22 144 -3 72 -9 96 -33 141 -112 205 -391 241 -552 70 -101 -108 -117 -275 -37 -401 18 -29 29 -57 25 -61 -4 -4 -46 -7 -92 -5 l-84 3 -22 45 c-33 67 -47 174 -34 263 42 279 312 469 592 417z m38 -742 l134 -123 138 -5 c123 -4 141 -7 159 -26 29 -29 29 -78 0 -109 -23 -25 -25 -25 -196 -25 -141 0 -174 3 -184 15 -7 8 -52 51 -101 96 l-88 80 -99 -96 -99 -95 -164 0 c-153 0 -164 1 -186 22 -30 28 -32 87 -2 114 18 16 40 19 152 22 l131 4 130 124 c72 68 133 124 136 124 3 0 66 -55 139 -122z"/>
    </g>
</svg>
