<svg viewBox="0 0 430 108" fill="none" xmlns="http://www.w3.org/2000/svg">
    <path fill-rule="evenodd" clip-rule="evenodd"
          d="M71.9264 33.6762C69.8608 34.8566 67.242 33.7869 66.3199 31.5738C62.41 22.5369 55.1805 18 44.6682 18C39.6149 18 35.5576 19.1066 32.533 21.2828C29.5084 23.3852 27.9961 26.041 27.9961 29.25C27.9961 33.4549 30.2092 36.7377 34.6723 39.1352C39.1354 41.5328 45.1477 43.4508 52.7092 44.8525C65.6559 47.25 75.0985 50.8648 81.074 55.6598C87.1231 60.3443 90.1846 67.2049 90.1846 76.2049C90.1846 82.291 88.451 87.75 85.0207 92.5451C81.5903 97.3402 76.6477 101.139 70.1559 103.943C63.7748 106.635 56.3608 108 47.8772 108C37.3649 108 27.6641 105.602 18.7748 100.807C10.5862 96.3074 4.42641 88.9672 0.258379 78.8238C-0.405555 77.2377 0.25838 75.4303 1.6969 74.5082L13.2051 67.3893C15.2707 66.0984 18.0002 67.2049 18.8854 69.4918C21.0985 75.3197 24.3444 79.8934 28.6231 83.25C33.9715 87.4549 40.5371 89.5574 48.3567 89.5574C54.7379 89.5574 59.8281 88.4139 63.6641 86.0902C67.5002 83.7664 69.4182 80.7418 69.4182 76.9426C69.4182 73.1434 67.6477 69.9344 64.1067 67.6475C60.5658 65.25 54.2584 63.332 45.1477 61.9303C20.0658 58.1311 7.52477 47.1762 7.52477 29.0656C7.52477 23.7541 9.07395 18.9221 12.2092 14.5328C15.4551 10.0328 19.9551 6.4918 25.7092 3.87295C31.574 1.29098 38.2871 0 45.8854 0C55.2912 0 63.5166 2.25 70.5985 6.75C76.869 10.623 81.4797 16.0451 84.5043 22.9795C85.2051 24.6025 84.5043 26.4467 82.992 27.2951L71.9264 33.6393V33.6762ZM229.98 102.873C229.98 104.902 228.357 106.525 226.328 106.525H212.902C210.873 106.525 209.25 104.902 209.25 102.873V5.12701C209.25 3.13521 210.873 1.47537 212.902 1.47537H226.328C228.357 1.47537 229.98 3.09832 229.98 5.12701V102.873ZM356.496 102.873C356.496 104.902 358.156 106.525 360.148 106.525V106.598H426.062C428.09 106.598 429.713 104.975 429.713 102.947V91.4754C429.713 89.4467 428.053 87.8237 426.062 87.8237H380.472C378.443 87.8237 376.82 86.2008 376.82 84.1721V65.1762C376.82 63.1475 378.443 61.5246 380.435 61.5246H417.135C419.164 61.5246 420.75 59.8647 420.75 57.836L420.64 46.4385C420.64 44.4467 419.017 42.8237 417.025 42.8237C410.391 42.8237 399.427 42.7547 390.621 42.6993L390.618 42.6993L390.616 42.6993L390.606 42.6992C386.542 42.6736 382.939 42.651 380.435 42.6393C378.443 42.6393 376.82 41.0164 376.82 38.9877V23.9016C376.82 21.8729 378.48 20.25 380.472 20.25H426.062C428.09 20.25 429.713 18.627 429.713 16.5983V5.12701C429.713 3.09832 428.053 1.47537 426.062 1.47537H360.148C358.119 1.47537 356.496 3.13521 356.496 5.12701V102.873ZM105.16 106.525C103.426 106.525 101.988 105.123 101.988 103.352V4.6475C101.988 2.9139 103.39 1.47537 105.16 1.47537H119.14C120.873 1.47537 122.312 2.87701 122.312 4.6475V39.9836C122.312 41.3483 123.197 42.5655 124.488 42.9713C132.418 45.4057 139.094 46.6229 146.84 46.6229C154.586 46.6229 161.926 45.4057 169.783 42.9713C171.074 42.5655 171.959 41.3483 171.959 39.9836V4.6475C171.959 2.9139 173.361 1.47537 175.131 1.47537H189.111C190.844 1.47537 192.283 2.87701 192.283 4.6475V103.352C192.283 105.086 190.881 106.525 189.111 106.525H175.131C173.398 106.525 171.959 105.123 171.959 103.352V65.9877C171.959 63.9221 170.041 62.4098 168.013 62.8524C160.746 64.4385 153.996 65.2131 146.84 65.2131C139.685 65.2131 133.488 64.4016 126.222 62.8155C124.23 62.3729 122.275 63.8852 122.275 65.9508V103.316C122.275 105.049 120.873 106.488 119.103 106.488H105.123L105.16 106.525ZM340.193 4.53685C340.193 2.84013 338.828 1.47537 337.131 1.47537H323.299C321.603 1.47537 320.238 2.84013 320.238 4.53685V76.3524C320.238 78.3442 318.209 79.0082 316.955 77.4221C311.164 70.1188 305.263 60.1229 299.213 49.4262C298.924 48.9143 298.631 48.399 298.337 47.8813C297.657 46.6833 296.969 45.4728 296.299 44.2623L295.798 43.3708C291.018 34.8794 286.178 26.2821 281.545 19.4754C278.668 15.2705 275.57 11.25 272.213 8.1516C269.115 5.31144 264.283 1.47537 258.123 1.47537H250.045C248.349 1.47537 246.984 2.84013 246.984 4.53685V103.463C246.984 105.16 248.349 106.525 250.045 106.525H263.877C265.574 106.525 266.939 105.16 266.939 103.463V39.6885C266.939 37.4016 269.779 36.627 270.849 38.6557C271.856 40.5217 272.881 42.4889 273.923 44.4902C275.478 47.4734 277.072 50.5327 278.705 53.4467C279.342 54.6021 279.994 55.7576 280.651 56.9227C281.022 57.58 281.394 58.2405 281.767 58.9057C287.742 69.4918 294.344 80.7787 301.242 89.4467C304.709 93.7991 308.545 97.8934 312.75 100.955C316.955 104.016 322.23 106.525 328.316 106.525H337.131C338.828 106.525 340.193 105.16 340.193 103.463V4.53685Z"
          fill="currentColor"/>
</svg>
