<svg viewBox="0 0 172 51" fill="currentcolor" xmlns="http://www.w3.org/2000/svg">
    <path d="M165.565 0.00323495C158.589 0.00323495 155.206 4.67666 153.235 12.8406L151.996 17.9076C151.208 21.1727 150.138 24.2136 148.843 26.6905C145.578 32.9965 142.312 36.3748 137.92 36.3748C134.26 36.3748 132.965 34.1222 132.965 29.3367V28.7177C145.07 24.1575 148.674 20.9484 148.674 17.2886C148.674 14.0796 146.14 12.3338 141.692 12.3338C135.611 12.3338 130.487 16.7258 127.728 22.9185C125.42 28.0427 124.069 30.801 123.168 32.3775C121.817 34.7423 121.029 36.0934 120.241 36.0934C119.678 36.0934 119.452 35.868 119.452 35.3612C119.452 34.8544 119.622 34.0101 119.846 33.1658L123.675 19.0894C123.9 18.2451 124.069 17.1754 124.069 16.3872C124.069 13.741 122.267 12.3338 119.846 12.3338C114.723 12.3338 110.331 17.4569 106.615 25.2272L113.146 0.00323495H112.021L104.982 1.63581C104.87 3.94448 104.645 5.18239 104.364 6.30923L101.38 17.9076C100.535 21.1727 99.3526 24.0443 98.0575 26.5223C94.7924 32.8282 91.414 36.3748 88.0357 36.3748C84.6573 36.3748 83.6437 34.0662 83.6437 29.3367C83.6437 22.2985 87.6971 14.1906 91.1887 14.1906C92.7091 14.1906 93.272 15.4296 93.272 17.3997C93.272 18.6387 93.0466 20.2152 92.653 21.9038H93.3291C95.9192 21.9038 98.0586 19.8205 98.0586 17.005C98.0586 14.471 96.2567 12.3316 91.8648 12.3316C85.8402 12.3316 81.2239 16.8357 78.127 23.93C76.0998 28.5473 75.0862 30.6867 74.1858 32.3754C72.8907 34.7962 72.0464 36.0912 71.1449 36.0912C70.6381 36.0912 70.4127 35.8659 70.4127 35.3591C70.4127 34.8522 70.582 34.0079 70.8063 33.1636L74.6354 19.0873C74.8608 18.2429 75.0301 17.1733 75.0301 16.385C75.0301 13.7388 73.3975 12.3316 70.8074 12.3316C65.7965 12.3316 61.4606 17.3986 57.6886 25.225L60.8977 12.8945H59.7719L52.7338 14.5271C52.7338 16.8357 52.6777 18.299 51.1573 21.6774C48.1164 28.5463 43.7816 36.3727 37.5877 36.3727C34.604 36.3727 33.2529 33.8386 33.2529 29.3345V28.7155C45.3581 24.0982 48.9618 20.9463 48.9618 17.2865C48.9618 14.0774 46.4278 12.3316 41.9797 12.3316C36.4059 12.3316 31.0003 16.385 28.1287 22.7481C27.5098 24.1554 25.3693 28.322 24.4689 29.9545C22.7803 32.8822 20.7531 33.5022 18.8951 33.5022C17.6001 33.5022 15.7982 33.2768 14.0535 32.5447L10.3937 30.9682L28.0727 16.1607C28.9731 15.4285 29.2545 14.6403 29.2545 13.852C29.2545 12.7824 28.4663 12.1634 27.0591 12.1634L25.3133 16.5554L20.6959 13.9653C17.8804 12.3888 15.685 11.7698 13.4895 11.7698C9.04148 11.7698 6.226 14.8667 3.74911 22.5239L4.70665 22.8614C6.39529 19.7645 8.02894 18.5826 10.5058 18.5826C12.5331 18.5826 14.0524 18.9201 15.6289 19.483L19.6823 20.9474L1.72187 36.0934C0.933624 36.7695 0.540039 37.5577 0.540039 38.4021C0.540039 39.4718 1.27222 40.0907 2.67942 40.0907L4.48128 35.6987L9.1547 38.0074C13.0959 39.9214 14.1656 40.3161 15.9675 40.3161C19.5712 40.3161 21.5413 38.4021 26.2708 28.887C26.0454 36.0934 29.3117 40.3161 35.3923 40.3161C41.9797 40.3161 44.682 36.3748 50.6504 25.5086L47.1039 39.7532H54.0288L55.8868 32.715C57.7447 25.6208 63.6571 17.0061 66.9783 17.0061C67.5973 17.0061 67.8787 17.2876 67.8787 18.0197C67.8787 18.3012 67.8226 18.6387 67.5412 19.6523L64.1628 31.9268C63.5999 33.8408 63.3746 34.9676 63.3746 36.2055C63.3746 38.6264 65.0071 40.2589 67.5412 40.2589C71.0878 40.2589 73.2282 36.9366 76.7187 29.8424C76.4934 36.2605 79.5342 40.315 85.2773 40.315C90.3443 40.315 94.5109 36.4298 99.3537 26.464L96.1446 39.7521H103.013L104.815 32.7139C106.729 25.3383 112.698 17.005 116.02 17.005C116.639 17.005 116.921 17.2865 116.921 18.0187C116.921 18.3001 116.864 18.6376 116.583 19.6512L113.205 31.9257C112.642 33.8397 112.416 34.9665 112.416 36.2045C112.416 38.6253 114.049 40.2578 116.583 40.2578C120.58 40.2578 122.495 36.3727 126.042 29.1663C125.817 36.4859 129.195 40.3139 135.501 40.3139C141.807 40.3139 145.241 36.4848 150.083 26.6322L147.549 39.5817C146.021 48.0131 144.531 48.4962 143.835 48.494C142.123 48.4908 141.431 46.4377 141.441 43.1876C141.441 43.1876 140.426 43.1822 140.091 43.2264C136.949 43.6373 136.895 46.18 136.944 46.8011C137.118 49.044 139.256 50.2732 142.796 50.2732C147.486 50.2732 152.392 47.1256 155.714 32.7689L159.536 15.3498L165.342 15.3703L165.905 13.0616H160.05C161.749 4.8136 162.493 1.69296 164.672 1.97116C165.95 2.13399 166.836 3.19936 166.353 5.79703C166.271 6.24021 166.087 7.02846 165.934 7.65065L167.121 7.62908C169.542 7.62908 171.48 6.47529 171.48 4.16661C171.48 1.63257 169.227 0 165.569 0L165.565 0.00323495ZM141.018 14.1917C142.425 14.1917 143.157 15.1493 143.157 16.894C143.157 20.4977 139.835 25.0018 133.079 27.4226C133.698 20.7231 137.471 14.1917 141.018 14.1917ZM41.3047 14.1917C42.7119 14.1917 43.4441 15.1493 43.4441 16.894C43.4441 20.4977 40.1789 25.0018 33.3661 27.4226C33.9851 20.7231 37.7581 14.1917 41.3047 14.1917Z"
          fill="“currentcolor/">
    </path>
</svg>
